<?xml version="1.0" standalone="no"?>
<!DOCTYPE svg PUBLIC "-//W3C//DTD SVG 1.1//EN" "http://www.w3.org/Graphics/SVG/1.1/DTD/svg11.dtd">
<svg xmlns="http://www.w3.org/2000/svg"><metadata>This SVG WebFont was generated by YouWorkForThem.
Copyright Â© 2017 by Samuel Oakes. All rights reserved.</metadata><defs><font horiz-adv-x="1159" id="ywftsvg"><font-face ascent="1638" bbox="-100 -649 2204 1909" cap-height="1434" descent="-410" font-family="" font-stretch="normal" font-weight="400" panose-1="0 0 5 0 0 0 0 0 0 0" underline-position="0" underline-thickness="0" unicode-range="U+0020-2265" units-per-em="2048" x-height="1024"/><missing-glyph horiz-adv-x="1228"/><glyph glyph-name=".notdef" horiz-adv-x="1228"/><glyph glyph-name="glyph1" horiz-adv-x="1228"/><glyph glyph-name="glyph2" horiz-adv-x="681"/><glyph glyph-name="space" horiz-adv-x="573" unicode=" "/><glyph d="M119 422l-21 1114h170l-20 -1114h-129zM90 0v209h197v-209h-197z" glyph-name="exclam" horiz-adv-x="477" unicode="!"/><glyph d="M102 1245l-59 166v209h199v-209l-60 -166h-80zM438 1245l-59 166v209h196v-209l-59 -166h-78z" glyph-name="quotedbl" horiz-adv-x="659" unicode="&quot;"/><glyph d="M365 0l49 348h-277l15 137h280l68 459h-277l17 135h276l51 359h135l-49 -359h367l49 359h135l-49 -359h256l-16 -135h-256l-68 -459h254l-14 -137h-258l-54 -348h-133l49 348h-368l-47 -348h-135zM567 485h367l70 459h-371z" glyph-name="numbersign" horiz-adv-x="1536" unicode="#"/><glyph d="M651 -117v107q-207 20 -349 137t-157 317h181q23 -145 129 -226t278 -81q156 0 244 74t88 190q0 106 -76 165t-258 87q-289 41 -418 141.5t-129 262.5q0 158 129 270.5t320 118.5v102h153v-110q195 -31 307.5 -147.5t114.5 -297.5h-168q-8 145 -105 223t-263 78 q-137 0 -224.5 -68.5t-87.5 -166.5q0 -190 359 -248q289 -43 404.5 -140.5t115.5 -271.5q0 -170 -117.5 -278.5t-316.5 -128.5v-109h-154z" glyph-name="dollar" horiz-adv-x="1316" unicode="$"/><glyph d="M399.5 954q-110.5 0 -188.5 86t-78 207t78 207t188.5 86t188.5 -86t78 -207t-78 -207t-188.5 -86zM125 0l1057 1536h161l-1056 -1536h-162zM399.5 1081q55.5 0 96.5 49.5t41 117t-41 115.5t-96.5 48t-95.5 -47t-40 -116.5t40 -118t95.5 -48.5zM1087.5 -12 q-110.5 0 -188.5 86t-78 209q0 121 78 206.5t188.5 85.5t188.5 -86t78 -206q0 -123 -78 -209t-188.5 -86zM1087 115q55 0 95.5 48t40.5 117.5t-40 116.5t-96 47q-57 0 -97 -47t-40 -116.5t40 -117.5t97 -48z" glyph-name="percent" horiz-adv-x="1480" unicode="%"/><glyph d="M598 -29q-193 0 -324 111t-131 280q0 258 269 422q-162 184 -162 336q0 141 102.5 239.5t251.5 98.5q143 0 242.5 -93t99.5 -232q0 -117 -84 -220.5t-209 -158.5l330 -328l92 162h187l-160 -279l311 -309h-215l-180 182q-162 -211 -420 -211zM547 864q106 43 177 117 t71 152q0 76 -55.5 130t-135.5 54q-82 0 -139 -54.5t-57 -127.5q0 -132 139 -271zM594 127q180 0 307 170l-385 377q-217 -121 -217 -293q0 -111 86 -182.5t209 -71.5z" glyph-name="ampersand" horiz-adv-x="1521" unicode="&amp;"/><glyph d="M78 1245l-60 166v209h199v-209l-59 -166h-80z" glyph-name="quotesingle" horiz-adv-x="229" unicode="'"/><glyph d="M502 -459q-154 197 -248 473.5t-94 583.5t92 584.5t250 435.5h143q-168 -188 -258 -457.5t-90 -562.5q0 -291 96 -564.5t246 -492.5h-137z" glyph-name="parenleft" horiz-adv-x="634" unicode="("/><glyph d="M55 -459q150 219 246 492.5t96 564.5q0 293 -90 562.5t-258 457.5h144q158 -158 250 -435.5t92 -584.5t-94.5 -583.5t-247.5 -473.5h-138z" glyph-name="parenright" horiz-adv-x="675" unicode=")"/><glyph d="M217 1034l-92 56l111 155l-191 -18v110l191 -18l-111 154l92 55l82 -172l80 172l94 -55l-113 -154l193 18v-110l-193 18l113 -155l-94 -56l-80 174z" glyph-name="asterisk" horiz-adv-x="587" unicode="*"/><glyph d="M768 59v465h-424v123h424v463h119v-463h424v-123h-424v-465h-119z" glyph-name="plus" horiz-adv-x="1652" unicode="+"/><glyph d="M37 -209v96q100 4 94 113h-102v209h196v-209q0 -102 -51 -155.5t-137 -53.5z" glyph-name="comma" horiz-adv-x="290" unicode=","/><glyph d="M193 604v119h716v-119h-716z" glyph-name="hyphen" horiz-adv-x="1099" unicode="-"/><glyph d="M61 0v209h197v-209h-197z" glyph-name="period" horiz-adv-x="344" unicode="."/><glyph d="M147 -410l902 1946h151l-899 -1946h-154z" glyph-name="slash" horiz-adv-x="1179" unicode="/"/><glyph d="M641 -20q-244 0 -389.5 199.5t-145.5 529.5q0 332 146.5 532.5t392.5 200.5t391.5 -201t145.5 -532q0 -330 -147.5 -529.5t-393.5 -199.5zM645 125q174 0 276.5 157.5t102.5 424.5q0 268 -103.5 428.5t-281.5 160.5q-172 0 -273.5 -157.5t-101.5 -423.5 q0 -270 102.5 -430t278.5 -160z" glyph-name="zero" horiz-adv-x="1288" unicode="0"/><glyph d="M989 0h-815v137h344v1102l-332 -252v160l353 272h129v-1282h321v-137z" glyph-name="one" horiz-adv-x="1128" unicode="1"/><glyph d="M96 0v156l436 391q188 166 261 260t73 203q0 131 -83 210.5t-218 79.5t-223 -81.5t-100 -221.5h-162q12 199 147 324t338 125q199 0 327 -123t128 -307q0 -143 -79 -255t-261 -278l-367 -333l731 2v-152h-948z" glyph-name="two" horiz-adv-x="1122" unicode="2"/><glyph d="M770 752q119 -39 203 -127t84 -236q-2 -172 -133 -289.5t-344 -117.5q-219 0 -357.5 128t-144.5 330h160q2 -137 96 -224t241.5 -87t235.5 78t88 188q0 121 -103.5 196t-273.5 75h-57v145h51q154 0 248 70.5t94 185.5q0 102 -82 167.5t-211 65.5q-137 0 -219 -80.5 t-92 -220.5h-156q10 207 138.5 329t338.5 122q193 0 317 -102.5t124 -262.5q0 -119 -73 -207.5t-173 -125.5z" glyph-name="three" horiz-adv-x="1134" unicode="3"/><glyph d="M903 0h-153v305h-701v137l666 992h188v-985h223v-148h-223v-301zM750 1245l-537 -796h537v796z" glyph-name="four" horiz-adv-x="1173" unicode="4"/><glyph d="M594 954q199 0 331 -133t132 -342q0 -207 -137.5 -346t-350.5 -139q-205 0 -344 129t-133 326h152q2 -141 93 -224.5t236.5 -83.5t236.5 97.5t93 236.5q2 145 -93 243.5t-239 98.5q-160 0 -272 -121h-162l119 738h698v-146h-579l-72 -436q127 102 291 102z" glyph-name="five" horiz-adv-x="1146" unicode="5"/><glyph d="M596 -12q-233 -2 -379.5 184t-146.5 535q0 205 45 355t123.5 231t168 118t191.5 37q190 -2 312 -106.5t145 -266.5h-152q-27 117 -112.5 175.5t-202.5 54.5q-176 -6 -269.5 -147.5t-95.5 -409.5l-2 -62q57 117 164 178.5t236 61.5q195 0 323.5 -128t128.5 -333 q0 -217 -137 -347t-340 -130zM600 131q137 0 222 95.5t85 236.5q0 133 -88 221t-221 88t-224 -93t-91 -230q0 -127 90 -222.5t227 -95.5z" glyph-name="six" horiz-adv-x="1144" unicode="6"/><glyph d="M420 0h-166l620 1292h-811v142h975v-140z" glyph-name="seven" horiz-adv-x="1101" unicode="7"/><glyph d="M567 -16q-215 0 -345 118.5t-130 290.5q0 135 73 231.5t197 139.5q-106 37 -170.5 126t-64.5 195q0 154 122 257.5t314 103.5q195 0 320 -103.5t125 -257.5q0 -111 -70 -198.5t-170 -122.5q129 -41 201.5 -139.5t72.5 -233.5q0 -170 -131 -288.5t-344 -118.5zM565 846 q123 0 203 65.5t80 167.5q0 94 -81 162t-204 68q-121 0 -199.5 -67.5t-78.5 -162.5q0 -102 78.5 -167.5t201.5 -65.5zM565 125q137 0 226.5 80t89.5 194q0 121 -90.5 200t-227.5 79t-224 -79t-87 -200q0 -117 88 -195.5t225 -78.5z" glyph-name="eight" horiz-adv-x="1134" unicode="8"/><glyph d="M547 1448q233 0 379.5 -185.5t146.5 -535.5q0 -205 -45 -354.5t-123 -230.5t-168 -117.5t-192 -36.5q-188 0 -310 105.5t-145 266.5h150q27 -115 113.5 -175t201.5 -56q356 16 367 559v60q-57 -117 -164 -177.5t-234 -60.5q-195 0 -324.5 128t-129.5 333q0 215 137 345 t340 132zM545 1303q-139 0 -224 -95.5t-85 -234.5q0 -135 88 -222t221 -87q135 0 226 93t91 228q0 127 -91 222.5t-226 95.5z" glyph-name="nine" horiz-adv-x="1144" unicode="9"/><glyph d="M84 815v211h199v-211h-199zM86 0v209h197v-209h-197z" glyph-name="colon" horiz-adv-x="481" unicode=":"/><glyph d="M188 815v209h197l2 -209h-199zM197 -209v96q100 4 94 113h-103v209h197v-209q0 -102 -51 -155.5t-137 -53.5z" glyph-name="semicolon" horiz-adv-x="604" unicode=";"/><glyph d="M1323 53l-1130 572v125l1130 567v-139l-989 -492l989 -489v-144z" glyph-name="less" horiz-adv-x="1513" unicode="&lt;"/><glyph d="M131 672v127h1229v-127h-1229zM131 289v127h1229v-127h-1229z" glyph-name="equal" horiz-adv-x="1488" unicode="="/><glyph d="M193 53v144l989 489l-989 492v139l1130 -567v-125z" glyph-name="greater" horiz-adv-x="1513" unicode=">"/><glyph d="M401 367v106q0 113 38 199t92.5 137t109.5 96t93 101.5t38 126.5q0 115 -86 190.5t-203 75.5q-111 0 -197.5 -74t-95.5 -197h-143q2 172 130 289t304 117q184 0 310.5 -119t126.5 -282q0 -84 -38 -154t-92.5 -119t-107.5 -98t-91 -118t-38 -152v-125h-150zM379 0v209h199 v-209h-199z" glyph-name="question" horiz-adv-x="1056" unicode="?"/><glyph d="M688 -27q-270 0 -450.5 172t-180.5 435q0 268 190.5 458.5t457.5 190.5q260 0 430 -160t170 -405q0 -168 -86 -278t-211 -110q-129 0 -172 97q-82 -104 -203 -105q-117 0 -187.5 76t-70.5 203q0 150 88 254t215 104q113 0 164 -78l4 66h145l-37 -324q0 -6 -3 -36.5 t-5 -36.5q-2 -92 62 -93q68 0 114.5 71t46.5 188q0 201 -127 319.5t-337 118.5q-217 0 -361.5 -148.5t-144.5 -369.5q0 -213 138 -346.5t351 -133.5h506v-129h-506zM647 395q68 0 119 66.5t51 156.5q0 76 -33.5 117t-95.5 41q-70 0 -118 -66.5t-48 -162.5q0 -72 33 -112 t92 -40z" glyph-name="at" horiz-adv-x="1298" unicode="@"/><glyph d="M246 0l-180 2l546 1432h170l551 -1434h-180l-147 387h-617zM440 541h516l-258 706z" glyph-name="A" horiz-adv-x="1398" unicode="A"/><glyph d="M178 -4v1438h608q156 -4 262.5 -107.5t106.5 -263.5q0 -94 -52 -175t-134 -116q109 -41 176 -141.5t67 -237.5q-2 -174 -113.5 -285.5t-283.5 -111.5h-637zM336 821h438q94 0 157.5 65.5t63.5 162.5q0 102 -63.5 171.5t-161.5 69.5h-434v-469zM338 150h440 q115 0 190.5 72.5t75.5 180.5q0 117 -76.5 197t-189.5 80h-440v-530z" glyph-name="B" horiz-adv-x="1308" unicode="B"/><glyph d="M756 -12q-281 0 -465.5 202.5t-184.5 518.5q0 326 185.5 531.5t476.5 205.5q238 0 399.5 -136t194.5 -347h-172q-33 139 -148.5 233t-275.5 94q-215 0 -349 -163.5t-134 -419.5q0 -246 132 -403t343 -157q164 0 282.5 95.5t149.5 232.5h172q-37 -213 -200.5 -350 t-405.5 -137z" glyph-name="C" horiz-adv-x="1458" unicode="C"/><glyph d="M178 -4v1438l522 4q295 2 476.5 -196t181.5 -515q0 -324 -176 -525.5t-461 -201.5zM334 150l354 4q229 2 369.5 156.5t140.5 408.5t-137 409.5t-363 151.5l-364 -4v-1126z" glyph-name="D" horiz-adv-x="1464" unicode="D"/><glyph d="M178 0v1434h903v-154h-745v-479h702v-150h-702v-497h745v-154h-903z" glyph-name="E" horiz-adv-x="1167" unicode="E"/><glyph d="M178 0v1434h895v-150h-737v-487h694v-142h-694v-655h-158z" glyph-name="F" horiz-adv-x="1097" unicode="F"/><glyph d="M764 -12q-283 0 -470.5 202.5t-187.5 518.5q0 326 190.5 532.5t481.5 206.5q236 0 403 -137t197 -348h-172q-23 139 -145.5 235t-284.5 96q-215 0 -356 -166.5t-141 -420.5q0 -244 140 -404t351 -158q158 0 296 107.5t161 314.5h-432v156l591 -2v-721l-145 -2l-6 252 q-76 -129 -203 -195.5t-268 -66.5z" glyph-name="G" horiz-adv-x="1554" unicode="G"/><glyph d="M178 0v1434h166v-631h748v631h165v-1434h-165v659h-748v-659h-166z" glyph-name="H" horiz-adv-x="1435" unicode="H"/><glyph d="M188 0v1434h162v-1434h-162z" glyph-name="I" horiz-adv-x="538" unicode="I"/><glyph d="M467 -16q-188 0 -304 114.5t-118 304.5v113h154v-108q2 -125 75.5 -200t190.5 -75q121 0 192.5 79t71.5 220v1002h162v-1006q0 -205 -118 -324.5t-306 -119.5z" glyph-name="J" horiz-adv-x="1048" unicode="J"/><glyph d="M178 0v1434h154v-729l678 729l202 2l-587 -635l600 -801h-203l-508 686l-182 -197v-489h-154z" glyph-name="K" horiz-adv-x="1259" unicode="K"/><glyph d="M178 0v1434h166v-1278h649v-156h-815z" glyph-name="L" horiz-adv-x="1048" unicode="L"/><glyph d="M178 0v1434h209l473 -1246l461 1246h207v-1434h-156v1155l-426 -1155h-178l-432 1163v-1163h-158z" glyph-name="M" horiz-adv-x="1705" unicode="M"/><glyph d="M1087 -2l-755 1198v-1196h-154v1434h191l764 -1211v1209h153v-1434h-199z" glyph-name="N" horiz-adv-x="1464" unicode="N"/><glyph d="M774 -20q-285 0 -476.5 211.5t-191.5 525.5q0 315 189.5 524t478.5 209t478.5 -210t189.5 -527q0 -311 -191.5 -522t-476.5 -211zM770 135q223 0 366.5 164t143.5 406q0 254 -141.5 422.5t-364.5 168.5q-221 0 -361.5 -167.5t-140.5 -419.5q0 -244 140.5 -409t357.5 -165 z" glyph-name="O" horiz-adv-x="1548" unicode="O"/><glyph d="M178 -2v1436l574 2q188 -2 303.5 -121t115.5 -305q0 -184 -118.5 -301t-313.5 -117h-405v-594h-156zM334 733h395q129 0 209 75t80 202q0 131 -80 207.5t-209 76.5h-393z" glyph-name="P" horiz-adv-x="1236" unicode="P"/><glyph d="M1356 -66l-223 170q-162 -113 -369 -112q-279 0 -468.5 207t-189.5 518t188.5 516t469 205t468 -205t187.5 -520q0 -309 -178 -510l205 -160zM760 145q131 0 233 66l-188 143l94 107l209 -160q147 160 147 404q0 248 -141 414.5t-350 166.5q-211 0 -349.5 -165 t-138.5 -412q0 -242 137.5 -403t346.5 -161z" glyph-name="Q" horiz-adv-x="1552" unicode="Q"/><glyph d="M178 -2v1436l576 2q197 2 308.5 -103.5t111.5 -281.5q0 -117 -65 -209t-161 -123q104 -33 143 -115t50 -235q2 -29 6 -84.5t5 -71.5t5 -53t7 -49.5t8.5 -36t12.5 -40t17 -34.5h-178q-8 20 -14 40.5t-10.5 53.5t-5.5 52.5t-5 79t-6 91.5q-12 170 -39 224q-55 111 -239 110 h-369v-653h-158zM336 791h395q125 0 207 68.5t82 182.5q0 123 -76 187.5t-213 64.5h-393z" glyph-name="R" horiz-adv-x="1335" unicode="R"/><glyph d="M672 -14q-229 0 -394 118.5t-182 337.5h180q23 -145 129.5 -226t278.5 -81q154 0 243 74t89 190q0 106 -77 165t-259 87q-289 43 -417 143.5t-128 260.5q0 164 138.5 277.5t342.5 113.5q250 0 395.5 -122t147.5 -333h-168q-10 145 -107.5 223t-260.5 78 q-137 0 -225.5 -68.5t-88.5 -166.5q0 -193 361 -246q289 -43 404.5 -141.5t115.5 -272.5q0 -186 -143.5 -298.5t-374.5 -112.5z" glyph-name="S" horiz-adv-x="1286" unicode="S"/><glyph d="M539 0v1284h-514v150h1183v-150h-512v-1284h-157z" glyph-name="T" horiz-adv-x="1232" unicode="T"/><glyph d="M711 -16q-252 0 -402.5 148.5t-150.5 402.5v899h159v-899q0 -188 106.5 -294t287.5 -106q178 0 285.5 105.5t107.5 294.5v899h158v-899q0 -254 -150.5 -402.5t-400.5 -148.5z" glyph-name="U" horiz-adv-x="1419" unicode="U"/><glyph d="M569 0l-524 1434h162l459 -1250l450 1250h164l-524 -1434h-187z" glyph-name="V" horiz-adv-x="1325" unicode="V"/><glyph d="M461 0l-406 1434h160l336 -1213l330 1213h153l338 -1215l322 1215h161l-397 -1434h-178l-324 1174l-319 -1174h-176z" glyph-name="W" horiz-adv-x="1910" unicode="W"/><glyph d="M66 0l528 717l-528 717h194l430 -586l428 586h195l-529 -717l529 -717h-195l-428 586l-430 -586h-194z" glyph-name="X" horiz-adv-x="1378" unicode="X"/><glyph d="M567 0v590l-522 844h174l428 -703l436 703h166l-522 -844v-590h-160z" glyph-name="Y" horiz-adv-x="1294" unicode="Y"/><glyph d="M106 0v154l945 1126h-932v154h1128v-154l-942 -1126h930v-154h-1129z" glyph-name="Z" horiz-adv-x="1333" unicode="Z"/><glyph d="M170 -649v2322h383v-119h-252v-2084h252v-119h-383z" glyph-name="bracketleft" horiz-adv-x="552" unicode="["/><glyph d="M1061 -471l-1008 2007h152l1007 -2007h-151z" glyph-name="backslash" horiz-adv-x="1179" unicode="\"/><glyph d="M170 -649v119h252v2084h-252v119h383v-2322h-383z" glyph-name="bracketright" horiz-adv-x="552" unicode="]"/><glyph d="M193 -119v119h1024v-119h-1024z" glyph-name="underscore" horiz-adv-x="1406" unicode="_"/><glyph d="M432 -20q-143 0 -244.5 83.5t-101.5 225.5q0 143 96 221q94 74 277 90q55 6 84.5 9t80 13.5t78 25t49 40t21.5 57.5q0 76 -64.5 120t-160.5 44q-113 0 -180.5 -54t-79.5 -144l-162 -2q16 154 128 247t290 93q182 0 284.5 -95.5t102.5 -248.5v-705h-158v143 q-125 -163 -340 -163zM453 121q119 -2 218 72.5t101 218.5v137q-61 -55 -276 -74q-246 -20 -246 -180q0 -80 59.5 -126t143.5 -48z" glyph-name="a" horiz-adv-x="1067" unicode="a"/><glyph d="M651 -23q-113 0 -208 55.5t-136 131.5v-164h-149v1434h149v-584q49 80 142.5 132t207.5 52q193 0 325 -145.5t132 -383t-135 -383t-328 -145.5zM635 125q141 0 228 108.5t87 278.5q0 166 -87 271.5t-228 105.5q-147 0 -239.5 -109.5t-92.5 -281.5q0 -164 92.5 -268.5 t239.5 -104.5z" glyph-name="b" horiz-adv-x="1200" unicode="b"/><glyph d="M553 -14q-203 0 -335 146.5t-132 379.5q0 238 132 385t343 147q168 0 287 -99t139 -255h-156q-20 94 -94.5 155.5t-175.5 61.5q-137 0 -224 -107.5t-87 -285.5q0 -174 86 -280.5t223 -106.5q104 0 180 62.5t92 156.5h156q-20 -158 -141 -259t-293 -101z" glyph-name="c" horiz-adv-x="1073" unicode="c"/><glyph d="M549 -23q-193 0 -328 145.5t-135 383t132 383t325 145.5q117 0 210 -52t140 -132v584h149v-1434h-149v164q-41 -78 -135 -132.5t-209 -54.5zM567 125q147 0 238.5 104.5t91.5 268.5q0 172 -91 281.5t-239 109.5q-143 0 -229 -105.5t-86 -271.5q0 -170 86 -278.5 t229 -108.5z" glyph-name="d" horiz-adv-x="1200" unicode="d"/><glyph d="M561 -23q-213 0 -344 143.5t-131 383.5q0 238 129 385t344 147q217 0 338 -157.5t115 -407.5h-764v-2q0 -162 86 -256t231 -94q94 0 175 55t108 154h147q-23 -154 -141.5 -252.5t-292.5 -98.5zM254 608h592q-14 135 -86 212t-205 77q-131 0 -209 -79t-92 -210z" glyph-name="e" horiz-adv-x="1097" unicode="e"/><glyph d="M170 0v887h-145v137h145v145q0 121 70.5 193t187.5 72h145v-142h-122q-127 0 -127 -145v-123h245v-137h-245v-887h-154z" glyph-name="f" horiz-adv-x="598" unicode="f"/><glyph d="M563 -424q-190 0 -311 98.5t-129 251.5h156q12 -78 65 -129t108.5 -67.5t112.5 -16.5q154 0 245 90.5t91 272.5v119q-47 -92 -147.5 -148.5t-214.5 -56.5q-203 0 -328 148.5t-125 379.5q0 229 129 379t330 150q111 0 209 -55.5t147 -145.5v178h152v-948 q0 -246 -134.5 -373t-355.5 -127zM567 135q147 0 238.5 109.5t91.5 281.5q0 164 -91 268.5t-239 104.5q-141 0 -228 -108.5t-87 -278.5q0 -166 87 -271.5t228 -105.5z" glyph-name="g" horiz-adv-x="1200" unicode="g"/><glyph d="M158 0v1434h153v-549q43 68 127 117t193 49q160 0 270.5 -110t110.5 -312v-629h-162v618q0 131 -67.5 213t-176.5 82q-131 0 -212 -98t-83 -264v-551h-153z" glyph-name="h" unicode="h"/><glyph d="M147 1239v195h179v-195h-179zM158 0v1024h157v-1024h-157z" glyph-name="i" horiz-adv-x="473" unicode="i"/><glyph d="M152 1239v195h176v-195h-176zM-16 -362v149h43q61 0 98 39t37 115v1083h155v-1100q0 -135 -75.5 -210.5t-200.5 -75.5h-57z" glyph-name="j" horiz-adv-x="464" unicode="j"/><glyph d="M158 0v1434h153v-887l451 477h192l-381 -401l422 -623l-178 2l-346 506l-160 -168v-340h-153z" glyph-name="k" horiz-adv-x="1040" unicode="k"/><glyph d="M158 0v1434h159v-1434h-159z" glyph-name="l" horiz-adv-x="475" unicode="l"/><glyph d="M158 0v1024h153v-139q43 68 124 117t188 49q94 0 186 -48.5t147 -158.5q51 92 144.5 149.5t216.5 57.5q158 0 268.5 -110t110.5 -312v-629h-162v618q0 137 -67.5 216t-176.5 79q-123 0 -203.5 -99t-82.5 -263v-551h-162v618q0 137 -67.5 216t-176.5 79q-123 0 -204 -99 t-83 -263v-551h-153z" glyph-name="m" horiz-adv-x="1843" unicode="m"/><glyph d="M158 0v1024h153v-139q43 68 127 117t193 49q160 0 270.5 -110t110.5 -312v-629h-162v618q0 137 -67.5 216t-176.5 79q-125 0 -209 -99t-86 -263v-551h-153z" glyph-name="n" unicode="n"/><glyph d="M569 -10q-209 0 -346 147.5t-137 374.5q0 231 137 378.5t346 147.5q215 0 348.5 -146.5t133.5 -379.5q0 -227 -136.5 -374.5t-345.5 -147.5zM565 135q152 0 243 104.5t91 268.5q0 172 -87 278.5t-243 106.5q-145 0 -236 -106.5t-91 -274.5q0 -166 89 -271.5t234 -105.5z " glyph-name="o" horiz-adv-x="1136" unicode="o"/><glyph d="M158 -410v1434h149v-164q41 76 136.5 131.5t207.5 55.5q193 0 328 -145.5t135 -383t-132 -383t-325 -145.5q-115 0 -208 52t-142 132v-584h-149zM635 135q141 0 228 105.5t87 271.5q0 170 -87 278.5t-228 108.5q-147 0 -239.5 -104.5t-92.5 -268.5q0 -172 92.5 -281.5 t239.5 -109.5z" glyph-name="p" horiz-adv-x="1200" unicode="p"/><glyph d="M893 -410v584q-47 -80 -140.5 -132t-209.5 -52q-193 0 -325 145.5t-132 383t135 383t328 145.5q115 0 209 -54.5t135 -132.5v164h149v-1434h-149zM567 135q147 0 238.5 109.5t91.5 281.5q0 164 -91 268.5t-239 104.5q-143 0 -229 -108.5t-86 -278.5q0 -166 86 -271.5 t229 -105.5z" glyph-name="q" horiz-adv-x="1200" unicode="q"/><glyph d="M158 0v1024h151v-139q25 59 102.5 110.5t219.5 44.5l18 -2v-153l-14 -2q-326 12 -326 -312v-571h-151z" glyph-name="r" horiz-adv-x="686" unicode="r"/><glyph d="M504 -23q-174 0 -297 91.5t-131 259.5h155q12 -104 89 -159.5t190 -55.5q111 0 166 52t55 128q0 68 -53 105.5t-178 58.5q-213 35 -303.5 110.5t-90.5 190.5q0 119 102.5 201.5t256.5 82.5q170 0 284.5 -88t116.5 -260h-147q-14 211 -248 211q-88 0 -148.5 -41 t-60.5 -106q0 -127 236 -164q213 -31 302 -101.5t89 -203.5q0 -135 -107.5 -223.5t-277.5 -88.5z" glyph-name="s" horiz-adv-x="964" unicode="s"/><glyph d="M418 0q-117 0 -187.5 71.5t-70.5 192.5v623h-156v137h156v301h153v-301h248v-137h-248v-600q0 -143 127 -144h123v-143h-145z" glyph-name="t" horiz-adv-x="608" unicode="t"/><glyph d="M528 -27q-160 0 -270.5 110t-110.5 312v629h162v-618q2 -131 69.5 -213t174.5 -82q133 0 213 98t82 264v551h153v-1024h-153v139q-41 -66 -126 -116t-194 -50z" glyph-name="u" unicode="u"/><glyph d="M424 0l-399 1024h165l316 -836l315 836h170l-403 -1024h-164z" glyph-name="v" horiz-adv-x="1015" unicode="v"/><glyph d="M356 0l-321 1024h174l237 -838l236 838h149l238 -838l236 838h176l-322 -1024h-182l-219 778l-219 -778h-183z" glyph-name="w" horiz-adv-x="1515" unicode="w"/><glyph d="M45 0l369 512l-369 512h182l277 -387l272 387h182l-366 -512l366 -512h-180l-274 387l-279 -387h-180z" glyph-name="x" horiz-adv-x="1003" unicode="x"/><glyph d="M84 -410v146h74q145 0 200 145l68 180l-401 963h174l307 -770l299 770h172l-463 -1176q-51 -127 -131 -191.5t-215 -66.5h-84z" glyph-name="y" horiz-adv-x="1001" unicode="y"/><glyph d="M86 0v143l629 740h-629v143l817 -2v-141l-627 -740h623v-143h-813z" glyph-name="z" horiz-adv-x="1009" unicode="z"/><glyph d="M496 -635q-88 0 -159 78t-71 184v486q0 154 -27.5 222t-125.5 118v116q98 51 125.5 121t27.5 217v486q0 115 68.5 187.5t159.5 72.5h51v-117q-82 0 -119 -40t-37 -124v-495q0 -131 -28.5 -217.5t-120.5 -149.5q92 -61 120.5 -148.5t28.5 -218.5v-501q0 -82 37 -120 t119 -38v-119h-49z" glyph-name="braceleft" horiz-adv-x="653" unicode="{"/><glyph d="M231 -307v1843h125v-1843h-125z" glyph-name="bar" horiz-adv-x="587" unicode="|"/><glyph d="M113 -635v119q84 0 119.5 39t35.5 121v499q0 131 29 217t121 150q-92 61 -121 148t-29 219v497q0 162 -155 162v117h51q88 0 157.5 -75t69.5 -185v-486q0 -150 26.5 -219.5t127.5 -120.5v-116q-98 -49 -126 -119t-28 -219v-486q0 -111 -70.5 -186.5t-158.5 -75.5h-49z " glyph-name="braceright" horiz-adv-x="653" unicode="}"/><glyph d="M195 915v209h196v-209h-196zM207 -412l20 1114h129l21 -1114h-170z" glyph-name="exclamdown" horiz-adv-x="583" unicode="¡"/><glyph d="M500 0v154q-180 23 -294 165t-114 359t112.5 360.5t297.5 165.5v160h131v-160q143 -18 242.5 -113.5t117.5 -234.5h-155q-20 94 -95 155.5t-176 61.5q-137 0 -224 -107.5t-87 -285.5q0 -176 86 -281.5t223 -105.5q104 0 180 62.5t93 156.5h155q-18 -141 -116.5 -237.5 t-243.5 -118.5v-156h-133z" glyph-name="cent" horiz-adv-x="1097" unicode="¢"/><glyph d="M1137 293q-8 -143 -96.5 -227t-217.5 -84q-96 0 -243.5 70.5t-208.5 70.5q-57 0 -99.5 -33t-44.5 -94h-143q2 94 51 161.5t135 96.5q39 82 39 154q2 104 -37 237h-170v131l138 -2q-49 176 -50 299q4 176 131.5 296t317.5 120q188 0 311 -104.5t137 -284.5h-145 q-18 133 -102 194.5t-205 59.5q-127 0 -216 -83t-89 -208q0 -37 5 -78t11 -65.5t20.5 -74.5t18.5 -69h463v-131h-424q33 -150 33 -242q0 -68 -29 -149q55 -12 189.5 -71.5t191.5 -59.5q82 0 128 45t50 125h150z" glyph-name="sterling" horiz-adv-x="1228" unicode="£"/><glyph d="M618 0v293h-423v127h423v170h-423v129h395l-500 776h178l430 -680l441 680h170l-502 -776h399v-129h-426v-170h426v-127h-426v-293h-162z" glyph-name="yen" horiz-adv-x="1357" unicode="¥"/><glyph d="M207 799v737h133v-737h-133zM207 -307v737h133v-737h-133z" glyph-name="brokenbar" horiz-adv-x="587" unicode="¦"/><glyph d="M897 -27q-328 0 -560.5 233.5t-232.5 561.5t232.5 560.5t560.5 232.5t561.5 -232.5t233.5 -560.5q0 -330 -233.5 -562.5t-561.5 -232.5zM897 68q293 0 497.5 203.5t204.5 496.5q0 291 -204.5 494.5t-497.5 203.5q-291 0 -494.5 -203.5t-203.5 -494.5t203.5 -495.5 t494.5 -204.5zM895 315q-178 0 -293 127t-115 322q0 201 116 330t296 129q150 0 251 -86t124 -222h-125q-18 84 -87 138.5t-163 54.5q-127 0 -206 -96.5t-79 -249.5q0 -145 78 -237.5t201 -92.5q96 0 166.5 55.5t89.5 135.5h125q-25 -133 -127 -220.5t-252 -87.5z" glyph-name="copyright" horiz-adv-x="1794" unicode="©"/><glyph d="M514 195l-311 376l311 377h152l-312 -377l312 -376h-152zM899 195l-311 376l311 377h154l-312 -377l312 -376h-154z" glyph-name="guillemotleft" horiz-adv-x="1253" unicode="«"/><glyph d="M193 467v111h716v-111h-716z" glyph-name="uni00AD" horiz-adv-x="1208" unicode="­"/><glyph d="M897 -27q-328 0 -561.5 232.5t-233.5 562.5t233.5 562.5t561.5 232.5t561.5 -232.5t233.5 -562.5t-233.5 -562.5t-561.5 -232.5zM897 70q291 0 495.5 203.5t204.5 494.5t-204.5 494.5t-495.5 203.5t-494.5 -203.5t-203.5 -494.5t203.5 -494.5t494.5 -203.5zM1112 346 q-16 37 -25 191q-4 45 -6 63t-11 49t-24.5 43.5t-44 22.5t-71.5 10h-205v-377h-115v862l353 2q119 0 188.5 -65.5t69.5 -173.5q0 -66 -33 -120t-84 -79q51 -23 72.5 -72t25.5 -133q6 -82 9 -109.5t10.5 -58t21.5 -55.5h-131zM725 829h223q70 0 115 37t45 101q0 139 -160 139 h-223v-277z" glyph-name="registered" horiz-adv-x="1794" unicode="®"/><glyph d="M508 1008q-113 0 -194 80.5t-81 193.5q0 115 80 194.5t195 79.5q113 0 193.5 -80.5t80.5 -193.5t-80.5 -193.5t-193.5 -80.5zM508 1120q70 0 116 46t46 116t-46 116t-116 46t-116 -46t-46 -116t46 -116t116 -46z" glyph-name="degree" horiz-adv-x="1013" unicode="°"/><glyph d="M193 520v209h196v-209h-196z" glyph-name="periodcentered" horiz-adv-x="552" unicode="·"/><glyph d="M201 195l311 376l-311 377h151l312 -377l-312 -376h-151zM586 195l311 376l-311 377h153l312 -377l-312 -376h-153z" glyph-name="guillemotright" horiz-adv-x="1253" unicode="»"/><glyph d="M467 915v209h197v-209h-197zM561 -410q-186 0 -311 119t-125 283q0 84 38 153.5t91 118.5t107.5 98.5t92.5 118t38 152.5v125h149v-107q0 -113 -38 -198.5t-93 -137t-109.5 -96.5t-92.5 -101.5t-38 -125.5q0 -115 86 -190.5t203 -75.5q111 0 198 73.5t95 196.5h143 q-2 -172 -130 -289t-304 -117z" glyph-name="questiondown" horiz-adv-x="1064" unicode="¿"/><glyph d="M637 1530l-250 254h197l213 -254h-160zM246 0l-180 2l546 1432h170l551 -1434h-180l-147 387h-617zM440 541h516l-258 706z" glyph-name="Agrave" horiz-adv-x="1196" unicode="À"/><glyph d="M805 1534h-160l211 254h199zM246 0l-180 2l546 1432h170l551 -1434h-180l-147 387h-617zM440 541h516l-258 706z" glyph-name="Aacute" horiz-adv-x="1398" unicode="Á"/><glyph d="M616 1776h211l211 -263h-174l-141 170l-141 -170h-174zM246 0l-180 2l546 1432h170l551 -1434h-180l-147 387h-617zM440 541h516l-258 706z" glyph-name="Acircumflex" horiz-adv-x="1398" unicode="Â"/><glyph d="M840 1503q-119 0 -193 113q-37 57 -86 57q-37 0 -59.5 -27.5t-22.5 -72.5q0 -33 6 -51h-123q-6 25 -6 47q-2 98 54.5 161.5t144.5 63.5q119 0 195 -113q33 -57 86 -57q41 0 62.5 33t16.5 86q0 10 -4 31h123q2 -10 2 -33q10 -102 -46 -170t-150 -68zM246 0l-180 2 l546 1432h170l551 -1434h-180l-147 387h-617zM440 541h516l-258 706z" glyph-name="Atilde" horiz-adv-x="1398" unicode="Ã"/><glyph d="M442 1540v209h199v-209h-199zM791 1540v209h196v-209h-196zM246 0l-180 2l546 1432h170l551 -1434h-180l-147 387h-617zM440 541h516l-258 706z" glyph-name="Adieresis" horiz-adv-x="1398" unicode="Ä"/><glyph d="M721 1522q-80 0 -137.5 57t-57.5 135q0 80 57.5 137.5t137.5 57.5t135 -57.5t57 -137.5q0 -78 -56 -135t-136 -57zM721 1616q43 0 70.5 27.5t27.5 70.5t-27.5 73t-70.5 30t-71.5 -30t-28.5 -73t28.5 -70.5t71.5 -27.5zM246 0l-180 2l546 1432h170l551 -1434h-180 l-147 387h-617zM440 541h516l-258 706z" glyph-name="Aring" horiz-adv-x="1398" unicode="Å"/><glyph d="M1731 1280h-746v-479h703v-150h-703v-497h746v-154h-904v393h-440l-149 -393l-172 2l540 1432h1125v-154zM438 549h389v729h-122z" glyph-name="AE" horiz-adv-x="1816" unicode="Æ"/><glyph d="M758 147q164 0 282.5 95.5t149.5 232.5h172q-33 -195 -176.5 -329t-356.5 -154l-49 -98q37 6 68 4q80 -4 133 -56.5t53 -132.5q0 -90 -62.5 -151.5t-150.5 -61.5q-70 0 -138.5 39t-96.5 94l90 37q23 -31 64.5 -51.5t80.5 -20.5q47 0 80 33t33 82q0 45 -27.5 71.5 t-72.5 31.5q-47 6 -99 -17l-82 53l74 140q-270 12 -445.5 212.5t-175.5 508.5q0 326 185.5 531.5t476.5 205.5q238 0 399.5 -136t194.5 -347h-172q-33 139 -148.5 233t-275.5 94q-215 0 -349 -163.5t-134 -419.5q0 -246 132 -403t343 -157z" glyph-name="Ccedilla" horiz-adv-x="1458" unicode="Ç"/><glyph d="M631 1530l-250 254h197l213 -254h-160zM178 0v1434h903v-154h-745v-479h702v-150h-702v-497h745v-154h-903z" glyph-name="Egrave" horiz-adv-x="1167" unicode="È"/><glyph d="M623 1530h-160l211 254h198zM178 0v1434h903v-154h-745v-479h702v-150h-702v-497h745v-154h-903z" glyph-name="Eacute" horiz-adv-x="1167" unicode="É"/><glyph d="M539 1784h211l211 -262h-175l-141 170l-141 -170h-174zM178 0v1434h903v-154h-745v-479h702v-150h-702v-497h745v-154h-903z" glyph-name="Ecircumflex" horiz-adv-x="1167" unicode="Ê"/><glyph d="M367 1563v209h198v-209h-198zM715 1563v209h196v-209h-196zM178 0v1434h903v-154h-745v-479h702v-150h-702v-497h745v-154h-903z" glyph-name="Edieresis" horiz-adv-x="1167" unicode="Ë"/><glyph d="M213 1530l-250 254h197l213 -254h-160zM188 0v1434h162v-1434h-162z" glyph-name="Igrave" horiz-adv-x="559" unicode="Ì"/><glyph d="M365 1530h-160l211 254h198zM188 0v1434h162v-1434h-162z" glyph-name="Iacute" horiz-adv-x="802" unicode="Í"/><glyph d="M176 1782h211l211 -262h-174l-141 170l-142 -170h-174zM188 0v1434h162v-1434h-162z" glyph-name="Icircumflex" horiz-adv-x="786" unicode="Î"/><glyph d="M6 1563v209h199v-209h-199zM354 1563v209h197v-209h-197zM188 0v1434h162v-1434h-162z" glyph-name="Idieresis" horiz-adv-x="739" unicode="Ï"/><glyph d="M795 1438q295 2 476 -196t181 -515q0 -324 -176 -525.5t-461 -201.5l-543 -4v657h-94v146h94v635zM782 154q229 2 369.5 156.5t140.5 408.5t-137 409.5t-362 151.5l-365 -4v-477h168v-146h-168v-503z" glyph-name="Eth" horiz-adv-x="1558" unicode="Ð"/><glyph d="M868 1532q-119 0 -192 113q-37 57 -86 57q-37 0 -59.5 -27.5t-22.5 -72.5q0 -33 6 -52h-123q-6 25 -6 47q-2 98 54.5 162t144.5 64q119 0 194 -113q33 -57 86 -57q41 0 62.5 32.5t17.5 86.5q0 10 -4 30h123q2 -10 2 -33q10 -102 -46.5 -169.5t-150.5 -67.5zM1087 -2 l-755 1198v-1196h-154v1434h191l764 -1211v1209h153v-1434h-199z" glyph-name="Ntilde" horiz-adv-x="1464" unicode="Ñ"/><glyph d="M713 1534l-250 254h196l213 -254h-159zM774 -20q-285 0 -476.5 211.5t-191.5 525.5q0 315 189.5 524t478.5 209t478.5 -210t189.5 -527q0 -311 -191.5 -522t-476.5 -211zM770 135q223 0 366.5 164t143.5 406q0 254 -141.5 422.5t-364.5 168.5q-221 0 -361.5 -167.5 t-140.5 -419.5q0 -244 140.5 -409t357.5 -165z" glyph-name="Ograve" horiz-adv-x="1548" unicode="Ò"/><glyph d="M784 1536h-159l211 254h198zM774 -20q-285 0 -476.5 211.5t-191.5 525.5q0 315 189.5 524t478.5 209t478.5 -210t189.5 -527q0 -311 -191.5 -522t-476.5 -211zM770 135q223 0 366.5 164t143.5 406q0 254 -141.5 422.5t-364.5 168.5q-221 0 -361.5 -167.5t-140.5 -419.5 q0 -244 140.5 -409t357.5 -165z" glyph-name="Oacute" horiz-adv-x="1548" unicode="Ó"/><glyph d="M688 1778h211l211 -262h-174l-141 170l-142 -170h-174zM774 -20q-285 0 -476.5 211.5t-191.5 525.5q0 315 189.5 524t478.5 209t478.5 -210t189.5 -527q0 -311 -191.5 -522t-476.5 -211zM770 135q223 0 366.5 164t143.5 406q0 254 -141.5 422.5t-364.5 168.5 q-221 0 -361.5 -167.5t-140.5 -419.5q0 -244 140.5 -409t357.5 -165z" glyph-name="Ocircumflex" horiz-adv-x="1548" unicode="Ô"/><glyph d="M926 1518q-119 0 -193 112q-37 57 -86 58q-37 0 -59.5 -28t-22.5 -73q0 -33 6 -51h-122q-6 25 -7 47q-2 98 54.5 161.5t144.5 63.5q119 0 195 -112q33 -57 86 -58q41 0 62.5 33t16.5 86q0 10 -4 31h123q2 -10 2 -33q10 -102 -46 -169.5t-150 -67.5zM774 -20 q-285 0 -476.5 211.5t-191.5 525.5q0 315 189.5 524t478.5 209t478.5 -210t189.5 -527q0 -311 -191.5 -522t-476.5 -211zM770 135q223 0 366.5 164t143.5 406q0 254 -141.5 422.5t-364.5 168.5q-221 0 -361.5 -167.5t-140.5 -419.5q0 -244 140.5 -409t357.5 -165z" glyph-name="Otilde" horiz-adv-x="1548" unicode="Õ"/><glyph d="M518 1540v209h199v-209h-199zM866 1540v209h197v-209h-197zM774 -20q-285 0 -476.5 211.5t-191.5 525.5q0 315 189.5 524t478.5 209t478.5 -210t189.5 -527q0 -311 -191.5 -522t-476.5 -211zM770 135q223 0 366.5 164t143.5 406q0 254 -141.5 422.5t-364.5 168.5 q-221 0 -361.5 -167.5t-140.5 -419.5q0 -244 140.5 -409t357.5 -165z" glyph-name="Odieresis" horiz-adv-x="1548" unicode="Ö"/><glyph d="M383 133l-109 109l394 393l-394 395l109 109l393 -396l395 396l109 -109l-395 -395l395 -393l-109 -109l-395 393z" glyph-name="multiply" horiz-adv-x="1497" unicode="×"/><glyph d="M1264 1227q178 -207 178 -514q0 -311 -191.5 -522t-476.5 -211q-248 0 -426 161l-121 -141h-168l201 238q-154 203 -154 479q0 315 189.5 524t478.5 209q227 0 397 -135l101 119h168zM272 709q0 -193 95 -347l702 832q-125 102 -295 102q-221 0 -361.5 -167.5 t-140.5 -419.5zM770 135q223 0 366.5 164t143.5 406q0 236 -121 397l-710 -840q133 -127 321 -127z" glyph-name="Oslash" horiz-adv-x="1574" unicode="Ø"/><glyph d="M705 1505l-250 254h196l213 -254h-159zM711 -16q-252 0 -402.5 148.5t-150.5 402.5v899h159v-899q0 -188 106.5 -294t287.5 -106q178 0 285.5 105.5t107.5 294.5v899h158v-899q0 -254 -150.5 -402.5t-400.5 -148.5z" glyph-name="Ugrave" horiz-adv-x="1419" unicode="Ù"/><glyph d="M764 1503h-160l211 254h199zM711 -16q-252 0 -402.5 148.5t-150.5 402.5v899h159v-899q0 -188 106.5 -294t287.5 -106q178 0 285.5 105.5t107.5 294.5v899h158v-899q0 -254 -150.5 -402.5t-400.5 -148.5z" glyph-name="Uacute" horiz-adv-x="1449" unicode="Ú"/><glyph d="M637 1772h211l211 -263h-174l-142 170l-141 -170h-174zM711 -16q-252 0 -402.5 148.5t-150.5 402.5v899h159v-899q0 -188 106.5 -294t287.5 -106q178 0 285.5 105.5t107.5 294.5v899h158v-899q0 -254 -150.5 -402.5t-400.5 -148.5z" glyph-name="Ucircumflex" horiz-adv-x="1419" unicode="Û"/><glyph d="M465 1518v208h199v-208h-199zM813 1518v208h197v-208h-197zM711 -16q-252 0 -402.5 148.5t-150.5 402.5v899h159v-899q0 -188 106.5 -294t287.5 -106q178 0 285.5 105.5t107.5 294.5v899h158v-899q0 -254 -150.5 -402.5t-400.5 -148.5z" glyph-name="Udieresis" horiz-adv-x="1419" unicode="Ü"/><glyph d="M676 1464h-160l211 254h199zM567 0v590l-522 844h174l428 -703l436 703h166l-522 -844v-590h-160z" glyph-name="Yacute" horiz-adv-x="1294" unicode="Ý"/><glyph d="M178 -2v1436h156v-281l418 2q188 0 303.5 -120t115.5 -306q0 -184 -118.5 -301t-313.5 -117h-405v-313h-156zM334 455h395q129 0 209 74.5t80 201.5q0 131 -80 208t-209 77h-393z" glyph-name="Thorn" horiz-adv-x="1236" unicode="Þ"/><glyph d="M504 -12l-2 149h190q135 0 222 69.5t87 180.5q0 125 -100 200t-280 75h-52v137h45q164 0 262.5 83t98.5 201q0 111 -88 176.5t-215 65.5q-154 0 -244 -90t-90 -240v-1005h-160v1005q0 217 137.5 345t368.5 128q205 0 334 -103t129 -275q0 -117 -64.5 -207t-175.5 -138 q127 -39 199 -134t72 -220q0 -180 -135.5 -291.5t-350.5 -111.5h-188z" glyph-name="germandbls" horiz-adv-x="1273" unicode="ß"/><glyph d="M524 1174l-250 253h197l213 -253h-160zM432 -20q-143 0 -244.5 83.5t-101.5 225.5q0 143 96 221q94 74 277 90q55 6 84.5 9t80 13.5t78 25t49 40t21.5 57.5q0 76 -64.5 120t-160.5 44q-113 0 -180.5 -54t-79.5 -144l-162 -2q16 154 128 247t290 93q182 0 284.5 -95.5 t102.5 -248.5v-705h-158v143q-125 -163 -340 -163zM453 121q119 -2 218 72.5t101 218.5v137q-61 -55 -276 -74q-246 -20 -246 -180q0 -80 59.5 -126t143.5 -48z" glyph-name="agrave" horiz-adv-x="1067" unicode="à"/><glyph d="M557 1174h-160l211 253h199zM432 -20q-143 0 -244.5 83.5t-101.5 225.5q0 143 96 221q94 74 277 90q55 6 84.5 9t80 13.5t78 25t49 40t21.5 57.5q0 76 -64.5 120t-160.5 44q-113 0 -180.5 -54t-79.5 -144l-162 -2q16 154 128 247t290 93q182 0 284.5 -95.5t102.5 -248.5 v-705h-158v143q-125 -163 -340 -163zM453 121q119 -2 218 72.5t101 218.5v137q-61 -55 -276 -74q-246 -20 -246 -180q0 -80 59.5 -126t143.5 -48z" glyph-name="aacute" horiz-adv-x="1067" unicode="á"/><glyph d="M455 1419h211l211 -262h-175l-141 170l-141 -170h-174zM432 -20q-143 0 -244.5 83.5t-101.5 225.5q0 143 96 221q94 74 277 90q55 6 84.5 9t80 13.5t78 25t49 40t21.5 57.5q0 76 -64.5 120t-160.5 44q-113 0 -180.5 -54t-79.5 -144l-162 -2q16 154 128 247t290 93 q182 0 284.5 -95.5t102.5 -248.5v-705h-158v143q-125 -163 -340 -163zM453 121q119 -2 218 72.5t101 218.5v137q-61 -55 -276 -74q-246 -20 -246 -180q0 -80 59.5 -126t143.5 -48z" glyph-name="acircumflex" horiz-adv-x="1073" unicode="â"/><glyph d="M705 1169q-119 0 -193 113q-37 57 -86 57q-37 0 -59.5 -27.5t-22.5 -72.5q0 -33 6 -51h-123q-6 25 -6 47q-2 98 54.5 161.5t144.5 63.5q119 0 194 -112q33 -57 86 -58q41 0 62.5 33t17.5 86q0 10 -4 31h123q2 -10 2 -33q10 -102 -46 -170t-150 -68zM432 -20 q-143 0 -244.5 83.5t-101.5 225.5q0 143 96 221q94 74 277 90q55 6 84.5 9t80 13.5t78 25t49 40t21.5 57.5q0 76 -64.5 120t-160.5 44q-113 0 -180.5 -54t-79.5 -144l-162 -2q16 154 128 247t290 93q182 0 284.5 -95.5t102.5 -248.5v-705h-158v143q-125 -163 -340 -163z M453 121q119 -2 218 72.5t101 218.5v137q-61 -55 -276 -74q-246 -20 -246 -180q0 -80 59.5 -126t143.5 -48z" glyph-name="atilde" horiz-adv-x="1067" unicode="ã"/><glyph d="M289 1182v209h198v-209h-198zM637 1182v209h197v-209h-197zM432 -20q-143 0 -244.5 83.5t-101.5 225.5q0 143 96 221q94 74 277 90q55 6 84.5 9t80 13.5t78 25t49 40t21.5 57.5q0 76 -64.5 120t-160.5 44q-113 0 -180.5 -54t-79.5 -144l-162 -2q16 154 128 247t290 93 q182 0 284.5 -95.5t102.5 -248.5v-705h-158v143q-125 -163 -340 -163zM453 121q119 -2 218 72.5t101 218.5v137q-61 -55 -276 -74q-246 -20 -246 -180q0 -80 59.5 -126t143.5 -48z" glyph-name="adieresis" horiz-adv-x="1067" unicode="ä"/><glyph d="M563 1135q-80 0 -137 57t-57 135q0 80 57 137.5t137 57.5t135.5 -57.5t57.5 -137.5q0 -78 -56.5 -135t-136.5 -57zM563 1229q43 0 71 27.5t28 70.5t-28 73t-71 30t-71.5 -30t-28.5 -73t28.5 -70.5t71.5 -27.5zM432 -20q-143 0 -244.5 83.5t-101.5 225.5q0 143 96 221 q94 74 277 90q55 6 84.5 9t80 13.5t78 25t49 40t21.5 57.5q0 76 -64.5 120t-160.5 44q-113 0 -180.5 -54t-79.5 -144l-162 -2q16 154 128 247t290 93q182 0 284.5 -95.5t102.5 -248.5v-705h-158v143q-125 -163 -340 -163zM453 121q119 -2 218 72.5t101 218.5v137 q-61 -55 -276 -74q-246 -20 -246 -180q0 -80 59.5 -126t143.5 -48z" glyph-name="aring" horiz-adv-x="1067" unicode="å"/><glyph d="M1712 471h-764v-2q0 -162 86 -256t232 -94q94 0 175 55t107 154h148q-23 -154 -141.5 -252.5t-292.5 -98.5q-274 0 -404 226q-35 -84 -151.5 -153.5t-264.5 -69.5q-143 0 -249.5 85t-106.5 224q0 143 96 221q94 74 277 90q55 6 84.5 9t80 13.5t78 25t49 40t21.5 57.5 q0 76 -64.5 120t-160.5 44q-113 0 -180.5 -54t-79.5 -144l-162 -2q16 154 128 247t290 93q260 0 352 -183q133 170 365 170q217 0 337.5 -157.5t114.5 -407.5zM1255 897q-131 0 -208.5 -79t-92.5 -210h592q-14 135 -86 212t-205 77zM772 412v137q-61 -55 -276 -74 q-246 -18 -246 -180q0 -80 59.5 -126t143.5 -48q119 -2 218 73t101 218z" glyph-name="ae" horiz-adv-x="1800" unicode="æ"/><glyph d="M559 127q104 0 180 62.5t92 156.5h156q-18 -145 -123.5 -244.5t-259.5 -113.5l-61 -123q37 6 67 4q80 -4 133.5 -56.5t53.5 -131.5q0 -90 -62.5 -151.5t-150.5 -61.5q-70 0 -138.5 38.5t-97.5 94.5l90 37q23 -31 65 -51.5t81 -20.5q47 0 79.5 32.5t32.5 82.5 q0 45 -27.5 71.5t-72.5 30.5q-47 6 -98 -16l-82 53l88 168q-184 18 -301 162.5t-117 361.5q0 238 132 385t343 147q168 0 287 -99t139 -255h-156q-20 94 -94.5 155.5t-175.5 61.5q-137 0 -224 -107.5t-87 -285.5q0 -174 86 -280.5t223 -106.5z" glyph-name="ccedilla" horiz-adv-x="1073" unicode="ç"/><glyph d="M520 1174l-250 253h197l213 -253h-160zM561 -23q-213 0 -344 143.5t-131 383.5q0 238 129 385t344 147q217 0 338 -157.5t115 -407.5h-764v-2q0 -162 86 -256t231 -94q94 0 175 55t108 154h147q-23 -154 -141.5 -252.5t-292.5 -98.5zM254 608h592q-14 135 -86 212 t-205 77q-131 0 -209 -79t-92 -210z" glyph-name="egrave" horiz-adv-x="1097" unicode="è"/><glyph d="M567 1174h-159l210 253h199zM561 -23q-213 0 -344 143.5t-131 383.5q0 238 129 385t344 147q217 0 338 -157.5t115 -407.5h-764v-2q0 -162 86 -256t231 -94q94 0 175 55t108 154h147q-23 -154 -141.5 -252.5t-292.5 -98.5zM254 608h592q-14 135 -86 212t-205 77 q-131 0 -209 -79t-92 -210z" glyph-name="eacute" horiz-adv-x="1097" unicode="é"/><glyph d="M461 1395h211l211 -262h-174l-142 170l-141 -170h-174zM561 -23q-213 0 -344 143.5t-131 383.5q0 238 129 385t344 147q217 0 338 -157.5t115 -407.5h-764v-2q0 -162 86 -256t231 -94q94 0 175 55t108 154h147q-23 -154 -141.5 -252.5t-292.5 -98.5zM254 608h592 q-14 135 -86 212t-205 77q-131 0 -209 -79t-92 -210z" glyph-name="ecircumflex" horiz-adv-x="1097" unicode="ê"/><glyph d="M297 1178v208h199v-208h-199zM645 1178v208h197v-208h-197zM561 -23q-213 0 -344 143.5t-131 383.5q0 238 129 385t344 147q217 0 338 -157.5t115 -407.5h-764v-2q0 -162 86 -256t231 -94q94 0 175 55t108 154h147q-23 -154 -141.5 -252.5t-292.5 -98.5zM254 608h592 q-14 135 -86 212t-205 77q-131 0 -209 -79t-92 -210z" glyph-name="edieresis" horiz-adv-x="1097" unicode="ë"/><glyph d="M164 1171l-250 254h197l213 -254h-160zM147 0v1024h160v-1024h-160z" glyph-name="igrave" horiz-adv-x="618" unicode="ì"/><glyph d="M328 1171h-160l211 254h199zM147 0v1024h160v-1024h-160z" glyph-name="iacute" horiz-adv-x="618" unicode="í"/><glyph d="M133 1423h211l211 -262h-174l-141 170l-142 -170h-174zM147 0v1024h160v-1024h-160z" glyph-name="icircumflex" horiz-adv-x="618" unicode="î"/><glyph d="M-39 1186v209h199v-209h-199zM309 1186v209h197v-209h-197zM147 0v1024h160v-1024h-160z" glyph-name="idieresis" horiz-adv-x="618" unicode="ï"/><glyph d="M1200 1270v-133h-158v-1137h-149v164q-41 -78 -135 -132.5t-209 -54.5q-193 0 -328 145.5t-135 383t132 383t325 145.5q117 0 210 -52t140 -132v287h-191v133h191v164h149v-164h158zM567 125q147 0 238.5 104.5t91.5 268.5q0 172 -91 281.5t-239 109.5 q-143 0 -229 -105.5t-86 -271.5q0 -170 86 -278.5t229 -108.5z" glyph-name="eth" horiz-adv-x="1357" unicode="ð"/><glyph d="M733 1157q-119 0 -192 113q-37 57 -86 57q-37 0 -59.5 -27.5t-22.5 -72.5q0 -33 6 -51h-123q-6 25 -6 47q-2 98 54 161.5t145 63.5q119 0 194 -113q33 -57 86 -57q41 0 62.5 32.5t17.5 86.5q0 10 -4 30h123q2 -10 2 -32q10 -102 -46.5 -170t-150.5 -68zM158 0v1024h153 v-139q43 68 127 117t193 49q160 0 270.5 -110t110.5 -312v-629h-162v618q0 137 -67.5 216t-176.5 79q-125 0 -209 -99t-86 -263v-551h-153z" glyph-name="ntilde" unicode="ñ"/><glyph d="M547 1171l-250 254h197l213 -254h-160zM569 -10q-209 0 -346 147.5t-137 374.5q0 231 137 378.5t346 147.5q215 0 348.5 -146.5t133.5 -379.5q0 -227 -136.5 -374.5t-345.5 -147.5zM565 135q152 0 243 104.5t91 268.5q0 172 -87 278.5t-243 106.5q-145 0 -236 -106.5 t-91 -274.5q0 -166 89 -271.5t234 -105.5z" glyph-name="ograve" horiz-adv-x="1136" unicode="ò"/><glyph d="M563 1176h-160l211 254h199zM569 -10q-209 0 -346 147.5t-137 374.5q0 231 137 378.5t346 147.5q215 0 348.5 -146.5t133.5 -379.5q0 -227 -136.5 -374.5t-345.5 -147.5zM565 135q152 0 243 104.5t91 268.5q0 172 -87 278.5t-243 106.5q-145 0 -236 -106.5t-91 -274.5 q0 -166 89 -271.5t234 -105.5z" glyph-name="oacute" horiz-adv-x="1136" unicode="ó"/><glyph d="M487 1415h211l211 -262h-174l-141 170l-141 -170h-174zM569 -10q-209 0 -346 147.5t-137 374.5q0 231 137 378.5t346 147.5q215 0 348.5 -146.5t133.5 -379.5q0 -227 -136.5 -374.5t-345.5 -147.5zM565 135q152 0 243 104.5t91 268.5q0 172 -87 278.5t-243 106.5 q-145 0 -236 -106.5t-91 -274.5q0 -166 89 -271.5t234 -105.5z" glyph-name="ocircumflex" horiz-adv-x="1136" unicode="ô"/><glyph d="M721 1130q-119 0 -193 113q-37 57 -86 57q-37 0 -59.5 -27.5t-22.5 -72.5q0 -33 7 -51h-123q-6 25 -6 47q-2 98 54 161.5t144 63.5q119 0 195 -112q33 -57 86 -58q41 0 62.5 33t17.5 86q0 10 -4 31h122q2 -10 3 -33q10 -102 -46.5 -170t-150.5 -68zM569 -10 q-209 0 -346 147.5t-137 374.5q0 231 137 378.5t346 147.5q215 0 348.5 -146.5t133.5 -379.5q0 -227 -136.5 -374.5t-345.5 -147.5zM565 135q152 0 243 104.5t91 268.5q0 172 -87 278.5t-243 106.5q-145 0 -236 -106.5t-91 -274.5q0 -166 89 -271.5t234 -105.5z" glyph-name="otilde" horiz-adv-x="1136" unicode="õ"/><glyph d="M330 1180v209h198v-209h-198zM678 1180v209h196v-209h-196zM569 -10q-209 0 -346 147.5t-137 374.5q0 231 137 378.5t346 147.5q215 0 348.5 -146.5t133.5 -379.5q0 -227 -136.5 -374.5t-345.5 -147.5zM565 135q152 0 243 104.5t91 268.5q0 172 -87 278.5t-243 106.5 q-145 0 -236 -106.5t-91 -274.5q0 -166 89 -271.5t234 -105.5z" glyph-name="odieresis" horiz-adv-x="1136" unicode="ö"/><glyph d="M645 850v209h199v-209h-199zM213 524v129h1071v-129h-1071zM645 109v208h199v-208h-199z" glyph-name="divide" horiz-adv-x="1488" unicode="÷"/><glyph d="M1090 1024l-148 -162q109 -143 109 -350q0 -227 -136.5 -374.5t-345.5 -147.5q-180 0 -309 112l-92 -102h-143l161 180q-100 139 -100 332q0 231 137 378.5t346 147.5q172 0 299 -100l78 86h144zM242 512q0 -123 51 -215l477 530q-86 66 -201 66q-145 0 -236 -106.5 t-91 -274.5zM899 508q0 139 -59 240l-482 -535q88 -78 207 -78q152 0 243 104.5t91 268.5z" glyph-name="oslash" horiz-adv-x="1173" unicode="ø"/><glyph d="M584 1176l-250 254h196l213 -254h-159zM528 -27q-160 0 -270.5 110t-110.5 312v629h162v-618q2 -131 69.5 -213t174.5 -82q133 0 213 98t82 264v551h153v-1024h-153v139q-41 -66 -126 -116t-194 -50z" glyph-name="ugrave" unicode="ù"/><glyph d="M621 1174h-160l211 253h198zM528 -27q-160 0 -270.5 110t-110.5 312v629h162v-618q2 -131 69.5 -213t174.5 -82q133 0 213 98t82 264v551h153v-1024h-153v139q-41 -66 -126 -116t-194 -50z" glyph-name="uacute" unicode="ú"/><glyph d="M494 1440h211l210 -262h-174l-141 170l-141 -170h-174zM528 -27q-160 0 -270.5 110t-110.5 312v629h162v-618q2 -131 69.5 -213t174.5 -82q133 0 213 98t82 264v551h153v-1024h-153v139q-41 -66 -126 -116t-194 -50z" glyph-name="ucircumflex" unicode="û"/><glyph d="M336 1214v209h199v-209h-199zM684 1214v209h197v-209h-197zM528 -27q-160 0 -270.5 110t-110.5 312v629h162v-618q2 -131 69.5 -213t174.5 -82q133 0 213 98t82 264v551h153v-1024h-153v139q-41 -66 -126 -116t-194 -50z" glyph-name="udieresis" unicode="ü"/><glyph d="M543 1174h-160l211 253h199zM84 -410v146h74q145 0 200 145l68 180l-401 963h174l307 -770l299 770h172l-463 -1176q-51 -127 -131 -191.5t-215 -66.5h-84z" glyph-name="yacute" horiz-adv-x="1001" unicode="ý"/><glyph d="M125 -293v1653h151v-500q41 78 135.5 132.5t209.5 54.5q190 0 326 -145.5t136 -383t-132 -383t-324 -145.5q-117 0 -210 52t-141 132v-467h-151zM602 135q141 0 228.5 105.5t87.5 271.5q0 170 -87.5 278.5t-228.5 108.5q-147 0 -238.5 -104.5t-91.5 -268.5 q0 -172 91.5 -281.5t238.5 -109.5z" glyph-name="thorn" horiz-adv-x="1155" unicode="þ"/><glyph d="M252 1176v208h199v-208h-199zM600 1176v208h197v-208h-197zM84 -410v146h74q145 0 200 145l68 180l-401 963h174l307 -770l299 770h172l-463 -1176q-51 -127 -131 -191.5t-215 -66.5h-84z" glyph-name="ydieresis" horiz-adv-x="1001" unicode="ÿ"/><glyph d="M389 1585v127h635v-127h-635zM246 0l-180 2l546 1432h170l551 -1434h-180l-147 387h-617zM440 541h516l-258 706z" glyph-name="Amacron" horiz-adv-x="1398" unicode="Ā"/><glyph d="M244 1186v127h635v-127h-635zM432 -20q-143 0 -244.5 83.5t-101.5 225.5q0 143 96 221q94 74 277 90q55 6 84.5 9t80 13.5t78 25t49 40t21.5 57.5q0 76 -64.5 120t-160.5 44q-113 0 -180.5 -54t-79.5 -144l-162 -2q16 154 128 247t290 93q182 0 284.5 -95.5t102.5 -248.5 v-705h-158v143q-125 -163 -340 -163zM453 121q119 -2 218 72.5t101 218.5v137q-61 -55 -276 -74q-246 -20 -246 -180q0 -80 59.5 -126t143.5 -48z" glyph-name="amacron" horiz-adv-x="1067" unicode="ā"/><glyph d="M714.5 1524q-155.5 0 -248.5 94t-95 237h125q2 -92 58 -155.5t161 -63.5q104 2 162.5 65.5t60.5 153.5h123q-2 -143 -96.5 -237t-250 -94zM246 0l-180 2l546 1432h170l551 -1434h-180l-147 387h-617zM440 541h516l-258 706z" glyph-name="Abreve" horiz-adv-x="1398" unicode="Ă"/><glyph d="M559 1155q-156 0 -249 94t-95 238h125q2 -92 58.5 -155.5t160.5 -63.5q104 2 162.5 65.5t60.5 153.5h123q-2 -143 -96 -237.5t-250 -94.5zM432 -20q-143 0 -244.5 83.5t-101.5 225.5q0 143 96 221q94 74 277 90q55 6 84.5 9t80 13.5t78 25t49 40t21.5 57.5 q0 76 -64.5 120t-160.5 44q-113 0 -180.5 -54t-79.5 -144l-162 -2q16 154 128 247t290 93q182 0 284.5 -95.5t102.5 -248.5v-705h-158v143q-125 -163 -340 -163zM453 121q119 -2 218 72.5t101 218.5v137q-61 -55 -276 -74q-246 -20 -246 -180q0 -80 59.5 -126t143.5 -48z " glyph-name="abreve" horiz-adv-x="1069" unicode="ă"/><glyph d="M1393 -330l65 -92q-115 -115 -284 -110q-109 4 -176.5 61t-67.5 160q0 188 233 311h-10l-147 387h-617l-143 -387l-180 2l546 1432h170l549 -1430l15 -4q-111 -23 -194 -111t-83 -184q0 -59 34 -95t97 -36q117 0 193 96zM440 541h516l-258 706z" glyph-name="Aogonek" horiz-adv-x="1228" unicode="Ą"/><glyph d="M999 -330l66 -92q-115 -115 -287 -110q-109 4 -175 61t-66 160q0 186 241 311h-6v143q-125 -164 -340 -163q-143 0 -244.5 83.5t-101.5 225.5q0 143 96 221q94 74 277 90q55 6 84.5 9t80 13.5t78 25t49 40t21.5 57.5q0 76 -64.5 120t-160.5 44q-113 0 -180.5 -54 t-79.5 -144l-162 -2q16 154 128 247t290 93q182 0 284.5 -95.5t102.5 -248.5v-699l20 -6q-111 -23 -193.5 -111t-82.5 -184q0 -59 34.5 -95t98.5 -36q116 0 192 96zM772 412v137q-61 -55 -276 -74q-246 -20 -246 -180q0 -80 59.5 -126t143.5 -48q119 -2 218 73t101 218z" glyph-name="aogonek" horiz-adv-x="1202" unicode="ą"/><glyph d="M778 1534h-160l211 254h199zM756 -12q-281 0 -465.5 202.5t-184.5 518.5q0 326 185.5 531.5t476.5 205.5q238 0 399.5 -136t194.5 -347h-172q-33 139 -148.5 233t-275.5 94q-215 0 -349 -163.5t-134 -419.5q0 -246 132 -403t343 -157q164 0 282.5 95.5t149.5 232.5h172 q-37 -213 -200.5 -350t-405.5 -137z" glyph-name="Cacute" horiz-adv-x="1458" unicode="Ć"/><glyph d="M551 1159h-160l211 254h199zM553 -14q-203 0 -335 146.5t-132 379.5q0 238 132 385t343 147q168 0 287 -99t139 -255h-156q-20 94 -94.5 155.5t-175.5 61.5q-137 0 -224 -107.5t-87 -285.5q0 -174 86 -280.5t223 -106.5q104 0 180 62.5t92 156.5h156q-20 -158 -141 -259 t-293 -101z" glyph-name="cacute" horiz-adv-x="1073" unicode="ć"/><glyph d="M664 1810h210l211 -262h-174l-141 170l-141 -170h-174zM756 -12q-281 0 -465.5 202.5t-184.5 518.5q0 326 185.5 531.5t476.5 205.5q238 0 399.5 -136t194.5 -347h-172q-33 139 -148.5 233t-275.5 94q-215 0 -349 -163.5t-134 -419.5q0 -246 132 -403t343 -157 q164 0 282.5 95.5t149.5 232.5h172q-37 -213 -200.5 -350t-405.5 -137z" glyph-name="Ccircumflex" horiz-adv-x="1458" unicode="Ĉ"/><glyph d="M473 1417h211l211 -262h-174l-141 170l-142 -170h-174zM553 -14q-203 0 -335 146.5t-132 379.5q0 238 132 385t343 147q168 0 287 -99t139 -255h-156q-20 94 -94.5 155.5t-175.5 61.5q-137 0 -224 -107.5t-87 -285.5q0 -174 86 -280.5t223 -106.5q104 0 180 62.5 t92 156.5h156q-20 -158 -141 -259t-293 -101z" glyph-name="ccircumflex" horiz-adv-x="1073" unicode="ĉ"/><glyph d="M678 1571v209h199v-209h-199zM756 -12q-281 0 -465.5 202.5t-184.5 518.5q0 326 185.5 531.5t476.5 205.5q238 0 399.5 -136t194.5 -347h-172q-33 139 -148.5 233t-275.5 94q-215 0 -349 -163.5t-134 -419.5q0 -246 132 -403t343 -157q164 0 282.5 95.5t149.5 232.5h172 q-37 -213 -200.5 -350t-405.5 -137z" glyph-name="Cdotaccent" horiz-adv-x="1458" unicode="Ċ"/><glyph d="M471 1184v209h199v-209h-199zM553 -14q-203 0 -335 146.5t-132 379.5q0 238 132 385t343 147q168 0 287 -99t139 -255h-156q-20 94 -94.5 155.5t-175.5 61.5q-137 0 -224 -107.5t-87 -285.5q0 -174 86 -280.5t223 -106.5q104 0 180 62.5t92 156.5h156q-20 -158 -141 -259 t-293 -101z" glyph-name="cdotaccent" horiz-adv-x="1073" unicode="ċ"/><glyph d="M463 1827h172l143 -170l146 170h170l-211 -262h-211zM756 -12q-281 0 -465.5 202.5t-184.5 518.5q0 326 185.5 531.5t476.5 205.5q238 0 399.5 -136t194.5 -347h-172q-33 139 -148.5 233t-275.5 94q-215 0 -349 -163.5t-134 -419.5q0 -246 132 -403t343 -157 q164 0 282.5 95.5t149.5 232.5h172q-37 -213 -200.5 -350t-405.5 -137z" glyph-name="Ccaron" horiz-adv-x="1458" unicode="Č"/><glyph d="M266 1436h172l144 -170l145 170h170l-211 -262h-211zM553 -14q-203 0 -335 146.5t-132 379.5q0 238 132 385t343 147q168 0 287 -99t139 -255h-156q-20 94 -94.5 155.5t-175.5 61.5q-137 0 -224 -107.5t-87 -285.5q0 -174 86 -280.5t223 -106.5q104 0 180 62.5t92 156.5 h156q-20 -158 -141 -259t-293 -101z" glyph-name="ccaron" horiz-adv-x="1073" unicode="č"/><glyph d="M393 1808h172l144 -170l145 170h170l-211 -262h-211zM178 -4v1438l522 4q295 2 476.5 -196t181.5 -515q0 -324 -176 -525.5t-461 -201.5zM334 150l354 4q229 2 369.5 156.5t140.5 408.5t-137 409.5t-363 151.5l-364 -4v-1126z" glyph-name="Dcaron" horiz-adv-x="1464" unicode="Ď"/><glyph d="M549 -23q-193 0 -328 145.5t-135 383t132 383t325 145.5q117 0 210 -52t140 -132v584h149v-1434h-149v164q-41 -78 -135 -132.5t-209 -54.5zM240 1430h172l143 -170l145 170h170l-211 -263h-210zM567 125q147 0 238.5 104.5t91.5 268.5q0 172 -91 281.5t-239 109.5 q-143 0 -229 -105.5t-86 -271.5q0 -170 86 -278.5t229 -108.5z" glyph-name="dcaron" horiz-adv-x="1200" unicode="ď"/><glyph d="M784 1438q295 2 476.5 -196t181.5 -515q0 -324 -176 -525.5t-461 -201.5l-543 -4v655h-94v137h94v646zM772 154q229 2 369.5 156.5t140.5 408.5t-137 409.5t-363 151.5l-364 -4v-488h391v-137h-391v-501z" glyph-name="Dcroat" horiz-adv-x="1619" unicode="Đ"/><glyph d="M319 1593v127h635v-127h-635zM178 0v1434h903v-154h-745v-479h702v-150h-702v-497h745v-154h-903z" glyph-name="Emacron" horiz-adv-x="1167" unicode="Ē"/><glyph d="M256 1180v127h635v-127h-635zM561 -23q-213 0 -344 143.5t-131 383.5q0 238 129 385t344 147q217 0 338 -157.5t115 -407.5h-764v-2q0 -162 86 -256t231 -94q94 0 175 55t108 154h147q-23 -154 -141.5 -252.5t-292.5 -98.5zM254 608h592q-14 135 -86 212t-205 77 q-131 0 -209 -79t-92 -210z" glyph-name="emacron" horiz-adv-x="1097" unicode="ē"/><glyph d="M641 1520q-156 0 -249 94t-95 237h125q2 -92 58.5 -155.5t160.5 -63.5q104 2 162.5 65.5t60.5 153.5h123q-2 -143 -96 -237t-250 -94zM178 0v1434h903v-154h-745v-479h702v-150h-702v-497h745v-154h-903z" glyph-name="Ebreve" horiz-adv-x="1167" unicode="Ĕ"/><glyph d="M583.5 1118q-155.5 0 -248.5 94.5t-95 237.5h125q2 -92 58 -155.5t161 -63.5q104 2 162.5 65.5t60.5 153.5h123q-2 -143 -96.5 -237.5t-250 -94.5zM561 -23q-213 0 -344 143.5t-131 383.5q0 238 129 385t344 147q217 0 338 -157.5t115 -407.5h-764v-2q0 -162 86 -256 t231 -94q94 0 175 55t108 154h147q-23 -154 -141.5 -252.5t-292.5 -98.5zM254 608h592q-14 135 -86 212t-205 77q-131 0 -209 -79t-92 -210z" glyph-name="ebreve" horiz-adv-x="1097" unicode="ĕ"/><glyph d="M553 1581v209h199v-209h-199zM178 0v1434h903v-154h-745v-479h702v-150h-702v-497h745v-154h-903z" glyph-name="Edotaccent" horiz-adv-x="1167" unicode="Ė"/><glyph d="M481 1165v209h199v-209h-199zM561 -23q-213 0 -344 143.5t-131 383.5q0 238 129 385t344 147q217 0 338 -157.5t115 -407.5h-764v-2q0 -162 86 -256t231 -94q94 0 175 55t108 154h147q-23 -154 -141.5 -252.5t-292.5 -98.5zM254 608h592q-14 135 -86 212t-205 77 q-131 0 -209 -79t-92 -210z" glyph-name="edotaccent" horiz-adv-x="1097" unicode="ė"/><glyph d="M1151 -330l66 -92q-115 -115 -287 -110q-109 4 -175.5 61t-66.5 160q0 186 242 311h-752v1434h903v-154h-745v-479h702v-150h-702v-497h745v-148l21 -6q-111 -23 -194 -111t-83 -184q0 -59 35 -95t98 -36q117 0 193 96z" glyph-name="Eogonek" horiz-adv-x="1228" unicode="Ę"/><glyph d="M1012 471h-764v-2q0 -162 86 -256t231 -94q94 0 175 55t108 154h147q-20 -139 -121.5 -234.5t-252.5 -111.5q-90 -39 -151.5 -117t-61.5 -160q0 -59 34.5 -95t98.5 -36q117 0 192 96l66 -92q-115 -115 -287 -110q-109 4 -175.5 61t-66.5 160q0 172 211 295 q-180 27 -287.5 166t-107.5 354q0 238 129 385t344 147q217 0 338 -157.5t115 -407.5zM555 897q-131 0 -209 -79t-92 -210h592q-14 135 -86 212t-205 77z" glyph-name="eogonek" horiz-adv-x="1097" unicode="ę"/><glyph d="M336 1812h172l143 -170l146 170h170l-211 -262h-211zM178 0v1434h903v-154h-745v-479h702v-150h-702v-497h745v-154h-903z" glyph-name="Ecaron" horiz-adv-x="1167" unicode="Ě"/><glyph d="M264 1411h172l144 -170l145 170h170l-211 -262h-211zM561 -23q-213 0 -344 143.5t-131 383.5q0 238 129 385t344 147q217 0 338 -157.5t115 -407.5h-764v-2q0 -162 86 -256t231 -94q94 0 175 55t108 154h147q-23 -154 -141.5 -252.5t-292.5 -98.5zM254 608h592 q-14 135 -86 212t-205 77q-131 0 -209 -79t-92 -210z" glyph-name="ecaron" horiz-adv-x="1097" unicode="ě"/><glyph d="M678 1804h211l211 -262h-174l-142 170l-141 -170h-174zM764 -12q-283 0 -470.5 202.5t-187.5 518.5q0 326 190.5 532.5t481.5 206.5q236 0 403 -137t197 -348h-172q-23 139 -145.5 235t-284.5 96q-215 0 -356 -166.5t-141 -420.5q0 -244 140 -404t351 -158 q158 0 296 107.5t161 314.5h-432v156l591 -2v-721l-145 -2l-6 252q-76 -129 -203 -195.5t-268 -66.5z" glyph-name="Gcircumflex" horiz-adv-x="1554" unicode="Ĝ"/><glyph d="M469 1423h211l211 -262h-174l-142 170l-141 -170h-174zM563 -424q-190 0 -311 98.5t-129 251.5h156q12 -78 65 -129t108.5 -67.5t112.5 -16.5q154 0 245 90.5t91 272.5v119q-47 -92 -147.5 -148.5t-214.5 -56.5q-203 0 -328 148.5t-125 379.5q0 229 129 379t330 150 q111 0 209 -55.5t147 -145.5v178h152v-948q0 -246 -134.5 -373t-355.5 -127zM567 135q147 0 238.5 109.5t91.5 281.5q0 164 -91 268.5t-239 104.5q-141 0 -228 -108.5t-87 -278.5q0 -166 87 -271.5t228 -105.5z" glyph-name="gcircumflex" horiz-adv-x="1200" unicode="ĝ"/><glyph d="M776.5 1544q-155.5 0 -249 94.5t-95.5 237.5h125q2 -92 58.5 -155.5t160.5 -63.5q104 2 162.5 65.5t60.5 153.5h123q-2 -143 -96 -237.5t-249.5 -94.5zM764 -12q-283 0 -470.5 202.5t-187.5 518.5q0 326 190.5 532.5t481.5 206.5q236 0 403 -137t197 -348h-172 q-23 139 -145.5 235t-284.5 96q-215 0 -356 -166.5t-141 -420.5q0 -244 140 -404t351 -158q158 0 296 107.5t161 314.5h-432v156l591 -2v-721l-145 -2l-6 252q-76 -129 -203 -195.5t-268 -66.5z" glyph-name="Gbreve" horiz-adv-x="1554" unicode="Ğ"/><glyph d="M596 1128q-156 0 -249 94.5t-95 237.5h125q2 -92 58.5 -155.5t160.5 -63.5q104 2 162.5 65.5t60.5 153.5h123q-2 -143 -96 -237.5t-250 -94.5zM563 -424q-190 0 -311 98.5t-129 251.5h156q12 -78 65 -129t108.5 -67.5t112.5 -16.5q154 0 245 90.5t91 272.5v119 q-47 -92 -147.5 -148.5t-214.5 -56.5q-203 0 -328 148.5t-125 379.5q0 229 129 379t330 150q111 0 209 -55.5t147 -145.5v178h152v-948q0 -246 -134.5 -373t-355.5 -127zM567 135q147 0 238.5 109.5t91.5 281.5q0 164 -91 268.5t-239 104.5q-141 0 -228 -108.5t-87 -278.5 q0 -166 87 -271.5t228 -105.5z" glyph-name="gbreve" horiz-adv-x="1200" unicode="ğ"/><glyph d="M686 1587v209h199v-209h-199zM764 -12q-283 0 -470.5 202.5t-187.5 518.5q0 326 190.5 532.5t481.5 206.5q236 0 403 -137t197 -348h-172q-23 139 -145.5 235t-284.5 96q-215 0 -356 -166.5t-141 -420.5q0 -244 140 -404t351 -158q158 0 296 107.5t161 314.5h-432v156 l591 -2v-721l-145 -2l-6 252q-76 -129 -203 -195.5t-268 -66.5z" glyph-name="Gdotaccent" horiz-adv-x="1554" unicode="Ġ"/><glyph d="M498 1192v209h198v-209h-198zM563 -424q-190 0 -311 98.5t-129 251.5h156q12 -78 65 -129t108.5 -67.5t112.5 -16.5q154 0 245 90.5t91 272.5v119q-47 -92 -147.5 -148.5t-214.5 -56.5q-203 0 -328 148.5t-125 379.5q0 229 129 379t330 150q111 0 209 -55.5t147 -145.5 v178h152v-948q0 -246 -134.5 -373t-355.5 -127zM567 135q147 0 238.5 109.5t91.5 281.5q0 164 -91 268.5t-239 104.5q-141 0 -228 -108.5t-87 -278.5q0 -166 87 -271.5t228 -105.5z" glyph-name="gdotaccent" horiz-adv-x="1200" unicode="ġ"/><glyph d="M764 -12q-283 0 -470.5 202.5t-187.5 518.5q0 326 190.5 532.5t481.5 206.5q236 0 403 -137t197 -348h-172q-23 139 -145.5 235t-284.5 96q-215 0 -356 -166.5t-141 -420.5q0 -244 140 -404t351 -158q158 0 296 107.5t161 314.5h-432v156l591 -2v-721l-145 -2l-6 252 q-76 -129 -203 -195.5t-268 -66.5zM729 -547v96q100 4 94 113h-102v209h197v-209q0 -102 -51.5 -155.5t-137.5 -53.5z" glyph-name="Gcommaaccent" horiz-adv-x="1554" unicode="Ģ"/><glyph d="M553 1149v96q100 4 94 113h-102v209h196v-209q0 -102 -51 -155.5t-137 -53.5zM563 -424q-190 0 -311 98.5t-129 251.5h156q12 -78 65 -129t108.5 -67.5t112.5 -16.5q154 0 245 90.5t91 272.5v119q-47 -92 -147.5 -148.5t-214.5 -56.5q-203 0 -328 148.5t-125 379.5 q0 229 129 379t330 150q111 0 209 -55.5t147 -145.5v178h152v-948q0 -246 -134.5 -373t-355.5 -127zM567 135q147 0 238.5 109.5t91.5 281.5q0 164 -91 268.5t-239 104.5q-141 0 -228 -108.5t-87 -278.5q0 -166 87 -271.5t228 -105.5z" glyph-name="gcommaaccent" horiz-adv-x="1200" unicode="ģ"/><glyph d="M631 1798h211l211 -262h-174l-142 170l-141 -170h-174zM178 0v1434h166v-631h748v631h165v-1434h-165v659h-748v-659h-166z" glyph-name="Hcircumflex" horiz-adv-x="1435" unicode="Ĥ"/><glyph d="M631 1051q160 0 270.5 -110t110.5 -312v-629h-162v618q0 131 -67.5 213t-176.5 82q-131 0 -212 -98t-83 -264v-551h-153v1434h153v-56l183 230h211l210 -262h-174l-141 170l-141 -170h-148v-461q43 68 127 117t193 49z" glyph-name="hcircumflex" unicode="ĥ"/><glyph d="M1366 1214v-143h-109v-1071h-165v659h-748v-659h-166v1071h-74v143h74v220h166v-220h748v220h165v-220h109zM1092 803v268h-748v-268h748z" glyph-name="Hbar" horiz-adv-x="1546" unicode="Ħ"/><glyph d="M760 1051q160 0 270.5 -110t110.5 -312v-629h-162v618q0 131 -67.5 213t-176.5 82q-131 0 -212 -98t-83 -264v-551h-153v1176h-129v120h129v138h153v-138h246v-120h-246v-291q43 68 127 117t193 49z" glyph-name="hbar" horiz-adv-x="1288" unicode="ħ"/><glyph d="M418 1513q-119 0 -193 113q-37 57 -86 57q-37 0 -59.5 -27.5t-22.5 -72.5q0 -33 6 -51h-122q-6 25 -7 47q-2 98 54.5 161.5t144.5 63.5q119 0 195 -112q33 -57 86 -58q41 0 62.5 33t17.5 86q0 10 -5 31h123q2 -10 2 -33q10 -102 -46 -170t-150 -68zM188 0v1434h162v-1434 h-162z" glyph-name="Itilde" horiz-adv-x="806" unicode="Ĩ"/><glyph d="M387 1137q-119 0 -192 112q-37 57 -86 58q-37 0 -59.5 -28t-22.5 -73q0 -33 6 -51h-123q-6 25 -6 47q-2 98 54 161.5t144 63.5q119 0 195 -112q33 -57 86 -58q41 0 62.5 33t17.5 86q0 10 -4 31h123q2 -10 2 -33q10 -102 -46.5 -169.5t-150.5 -67.5zM147 0v1024h160v-1024 h-160z" glyph-name="itilde" horiz-adv-x="598" unicode="ĩ"/><glyph d="M-35 1565v127h635v-127h-635zM188 0v1434h162v-1434h-162z" glyph-name="Imacron" horiz-adv-x="788" unicode="Ī"/><glyph d="M-72 1219v127h635v-127h-635zM147 0v1024h160v-1024h-160z" glyph-name="imacron" horiz-adv-x="598" unicode="ī"/><glyph d="M288.5 1536q-155.5 0 -248.5 94t-95 238h125q2 -92 58 -155.5t161 -63.5q104 2 162.5 65.5t60.5 153.5h123q-2 -143 -96.5 -237.5t-250 -94.5zM188 0v1434h162v-1434h-162z" glyph-name="Ibreve" horiz-adv-x="823" unicode="Ĭ"/><glyph d="M243.5 1155q-155.5 0 -248.5 94t-95 238h125q2 -92 58 -155.5t161 -63.5q104 2 162.5 65.5t60.5 153.5h123q-2 -143 -96.5 -237.5t-250 -94.5zM147 0v1024h160v-1024h-160z" glyph-name="ibreve" horiz-adv-x="665" unicode="ĭ"/><glyph d="M414 -330l65 -92q-115 -115 -286 -110q-109 4 -175.5 61t-66.5 160q0 186 242 311h-5v1434h162v-1430l15 -4q-111 -23 -194 -111t-83 -184q0 -59 35 -95t98 -36q117 0 193 96z" glyph-name="Iogonek" horiz-adv-x="667" unicode="Į"/><glyph d="M326 1434v-195h-179v195h179zM467 -260l68 -94q-119 -115 -287 -109q-109 4 -175.5 61.5t-66.5 157.5q0 147 154 244h-2v1024h157v-1018l17 -6q-84 -23 -136.5 -88.5t-52.5 -136.5q0 -59 35 -95t98 -36q119 0 191 96z" glyph-name="iogonek" horiz-adv-x="618" unicode="į"/><glyph d="M186 1542v209h199v-209h-199zM188 0v1434h162v-1434h-162z" glyph-name="Idotaccent" horiz-adv-x="542" unicode="İ"/><glyph d="M147 0v1024h160v-1024h-160z" glyph-name="dotlessi" horiz-adv-x="454" unicode="ı"/><glyph d="M713 1776h211l211 -263h-174l-142 170l-141 -170h-174zM467 -16q-188 0 -304 114.5t-118 304.5v113h154v-108q2 -125 75.5 -200t190.5 -75q121 0 192.5 79t71.5 220v1002h162v-1006q0 -205 -118 -324.5t-306 -119.5z" glyph-name="Jcircumflex" horiz-adv-x="1292" unicode="Ĵ"/><glyph d="M221 1370h211l211 -262h-174l-141 170l-142 -170h-174zM76 -362v149h43q61 0 99 39t38 115v1083h154v-1100q0 -135 -76 -210.5t-199 -75.5h-59z" glyph-name="jcircumflex" horiz-adv-x="632" unicode="ĵ"/><glyph d="M178 0v1434h154v-729l678 729l202 2l-587 -635l600 -801h-203l-508 686l-182 -197v-489h-154zM582 -547v96q100 4 94 113h-103v209h197v-209q0 -102 -51 -155.5t-137 -53.5z" glyph-name="Kcommaaccent" horiz-adv-x="1259" unicode="Ķ"/><glyph d="M158 0v1434h153v-887l451 477h192l-381 -401l422 -623l-178 2l-346 506l-160 -168v-340h-153zM446 -547v96q100 4 95 113h-103v209h197v-209q0 -102 -51.5 -155.5t-137.5 -53.5z" glyph-name="kcommaaccent" horiz-adv-x="1040" unicode="ķ"/><glyph d="M369 1524h-160l211 254h198zM178 0v1434h166v-1278h649v-156h-815z" glyph-name="Lacute" horiz-adv-x="1048" unicode="Ĺ"/><glyph d="M336 1516h-160l211 253h199zM158 0v1434h159v-1434h-159z" glyph-name="lacute" horiz-adv-x="743" unicode="ĺ"/><glyph d="M178 0v1434h166v-1278h649v-156h-815zM512 -547v96q100 4 94 113h-102v209h196v-209q0 -102 -51 -155.5t-137 -53.5z" glyph-name="Lcommaaccent" horiz-adv-x="1048" unicode="Ļ"/><glyph d="M158 0v1434h159v-1434h-159zM164 -582v97q100 4 94 112h-102v209h196v-209q0 -102 -51 -155.5t-137 -53.5z" glyph-name="lcommaaccent" horiz-adv-x="550" unicode="ļ"/><glyph d="M-45 1794h172l143 -170l146 170h170l-211 -262h-211zM178 0v1434h166v-1278h649v-156h-815z" glyph-name="Lcaron" horiz-adv-x="1048" unicode="Ľ"/><glyph d="M-61 1778h172l143 -170l145 170h170l-211 -262h-211zM158 0v1434h159v-1434h-159z" glyph-name="lcaron" horiz-adv-x="727" unicode="ľ"/><glyph d="M174 1554v209h197v-209h-197zM178 0v1434h166v-1278h649v-156h-815z" glyph-name="Ldot" horiz-adv-x="1048" unicode="Ŀ"/><glyph d="M156 1518v208h196v-208h-196zM158 0v1434h159v-1434h-159z" glyph-name="ldot" horiz-adv-x="509" unicode="ŀ"/><glyph d="M344 156h649v-156h-815v612l-176 -88v144l176 88v678h166v-594l320 161v-143l-320 -162v-540z" glyph-name="Lslash" horiz-adv-x="1083" unicode="Ł"/><glyph d="M487 1004v-140l-170 -71v-793h-159v725l-131 -55v139l131 55v570h159v-502z" glyph-name="lslash" horiz-adv-x="559" unicode="ł"/><glyph d="M750 1495h-160l211 254h198zM1087 -2l-755 1198v-1196h-154v1434h191l764 -1211v1209h153v-1434h-199z" glyph-name="Nacute" horiz-adv-x="1464" unicode="Ń"/><glyph d="M596 1165h-160l211 254h199zM158 0v1024h153v-139q43 68 127 117t193 49q160 0 270.5 -110t110.5 -312v-629h-162v618q0 137 -67.5 216t-176.5 79q-125 0 -209 -99t-86 -263v-551h-153z" glyph-name="nacute" unicode="ń"/><glyph d="M1087 -2l-755 1198v-1196h-154v1434h191l764 -1211v1209h153v-1434h-199zM662 -547v96q100 4 94 113h-103v209h197v-209q0 -102 -51 -155.5t-137 -53.5z" glyph-name="Ncommaaccent" horiz-adv-x="1464" unicode="Ņ"/><glyph d="M158 0v1024h153v-139q43 68 127 117t193 49q160 0 270.5 -110t110.5 -312v-629h-162v618q0 137 -67.5 216t-176.5 79q-125 0 -209 -99t-86 -263v-551h-153zM510 -539v97q100 4 94 112h-102v209h196v-209q0 -102 -51 -155.5t-137 -53.5z" glyph-name="ncommaaccent" unicode="ņ"/><glyph d="M428 1776h172l143 -170l146 170h170l-211 -263h-211zM1087 -2l-755 1198v-1196h-154v1434h191l764 -1211v1209h153v-1434h-199z" glyph-name="Ncaron" horiz-adv-x="1464" unicode="Ň"/><glyph d="M283 1421h172l143 -170l145 170h170l-211 -262h-210zM158 0v1024h153v-139q43 68 127 117t193 49q160 0 270.5 -110t110.5 -312v-629h-162v618q0 137 -67.5 216t-176.5 79q-125 0 -209 -99t-86 -263v-551h-153z" glyph-name="ncaron" unicode="ň"/><glyph d="M1286 0h17q-2 -193 -93.5 -289t-261.5 -96v147q63 0 119.5 42t56.5 114q-2 35 -20 80h-17l-755 1198v-1196h-154v1434h191l764 -1211v1209h153v-1432z" glyph-name="Eng" horiz-adv-x="1480" unicode="Ŋ"/><glyph d="M1012 0h16q0 -160 -65.5 -231.5t-194.5 -71.5v117q78 2 112.5 44t32.5 142h-63v618q0 137 -67.5 216t-176.5 79q-125 0 -209 -99t-86 -263v-551h-153v1024h153v-139q43 68 127 117t193 49q160 0 270.5 -110t110.5 -312v-629z" glyph-name="eng" horiz-adv-x="1175" unicode="ŋ"/><glyph d="M467 1587v127h635v-127h-635zM774 -20q-285 0 -476.5 211.5t-191.5 525.5q0 315 189.5 524t478.5 209t478.5 -210t189.5 -527q0 -311 -191.5 -522t-476.5 -211zM770 135q223 0 366.5 164t143.5 406q0 254 -141.5 422.5t-364.5 168.5q-221 0 -361.5 -167.5t-140.5 -419.5 q0 -244 140.5 -409t357.5 -165z" glyph-name="Omacron" horiz-adv-x="1548" unicode="Ō"/><glyph d="M262 1167v127h635v-127h-635zM569 -10q-209 0 -346 147.5t-137 374.5q0 231 137 378.5t346 147.5q215 0 348.5 -146.5t133.5 -379.5q0 -227 -136.5 -374.5t-345.5 -147.5zM565 135q152 0 243 104.5t91 268.5q0 172 -87 278.5t-243 106.5q-145 0 -236 -106.5t-91 -274.5 q0 -166 89 -271.5t234 -105.5z" glyph-name="omacron" horiz-adv-x="1136" unicode="ō"/><glyph d="M778.5 1522q-155.5 0 -249 94t-95.5 237h125q2 -92 58.5 -155.5t160.5 -63.5q104 2 162.5 65.5t60.5 153.5h123q-2 -143 -96 -237t-249.5 -94zM774 -20q-285 0 -476.5 211.5t-191.5 525.5q0 315 189.5 524t478.5 209t478.5 -210t189.5 -527q0 -311 -191.5 -522 t-476.5 -211zM770 135q223 0 366.5 164t143.5 406q0 254 -141.5 422.5t-364.5 168.5q-221 0 -361.5 -167.5t-140.5 -419.5q0 -244 140.5 -409t357.5 -165z" glyph-name="Obreve" horiz-adv-x="1548" unicode="Ŏ"/><glyph d="M589.5 1126q-155.5 0 -248.5 94.5t-95 237.5h125q2 -92 58 -155.5t161 -63.5q104 2 162.5 65.5t60.5 153.5h123q-2 -143 -96.5 -237.5t-250 -94.5zM569 -10q-209 0 -346 147.5t-137 374.5q0 231 137 378.5t346 147.5q215 0 348.5 -146.5t133.5 -379.5 q0 -227 -136.5 -374.5t-345.5 -147.5zM565 135q152 0 243 104.5t91 268.5q0 172 -87 278.5t-243 106.5q-145 0 -236 -106.5t-91 -274.5q0 -166 89 -271.5t234 -105.5z" glyph-name="obreve" horiz-adv-x="1136" unicode="ŏ"/><glyph d="M510 1556v209h199v-209h-199zM858 1556v209h197v-209h-197zM774 -20q-285 0 -476.5 211.5t-191.5 525.5q0 315 189.5 524t478.5 209t478.5 -210t189.5 -527q0 -311 -191.5 -522t-476.5 -211zM770 135q223 0 366.5 164t143.5 406q0 254 -141.5 422.5t-364.5 168.5 q-221 0 -361.5 -167.5t-140.5 -419.5q0 -244 140.5 -409t357.5 -165z" glyph-name="Ohungarumlaut" horiz-adv-x="1548" unicode="Ő"/><glyph d="M322 1153v209h198v-209h-198zM670 1153v209h196v-209h-196zM569 -10q-209 0 -346 147.5t-137 374.5q0 231 137 378.5t346 147.5q215 0 348.5 -146.5t133.5 -379.5q0 -227 -136.5 -374.5t-345.5 -147.5zM565 135q152 0 243 104.5t91 268.5q0 172 -87 278.5t-243 106.5 q-145 0 -236 -106.5t-91 -274.5q0 -166 89 -271.5t234 -105.5z" glyph-name="ohungarumlaut" horiz-adv-x="1136" unicode="ő"/><glyph d="M2204 1280h-746v-479h703v-150h-703v-497h746v-154h-904v252q-92 -129 -228 -200.5t-298 -71.5q-285 0 -476.5 211.5t-191.5 525.5q0 315 189.5 524t478.5 209q164 0 300 -71.5t226 -198.5v254h904v-154zM770 135q223 0 366.5 164t143.5 406q0 254 -141.5 422.5 t-364.5 168.5q-221 0 -361.5 -167.5t-140.5 -419.5q0 -244 140.5 -409t357.5 -165z" glyph-name="OE" horiz-adv-x="2289" unicode="Œ"/><glyph d="M1860 471h-762v-2q0 -162 85 -256t230 -94q96 0 176 55t109 154h145q-20 -154 -140 -252.5t-294 -98.5q-145 0 -255 69t-167 194q-61 -117 -170.5 -183.5t-247.5 -66.5q-209 0 -346 147.5t-137 374.5q0 231 137 378.5t346 147.5q143 0 253 -67.5t169 -186.5 q119 252 418 252q223 0 341 -156.5t110 -408.5zM1403 897q-129 0 -207 -79t-92 -210h590q-12 135 -84 212t-207 77zM565 135q152 0 243 104.5t91 268.5q0 172 -87 278.5t-243 106.5q-145 0 -236 -106.5t-91 -274.5q0 -166 89 -271.5t234 -105.5z" glyph-name="oe" horiz-adv-x="1947" unicode="œ"/><glyph d="M629 1585h-160l211 254h199zM178 -2v1436l576 2q197 2 308.5 -103.5t111.5 -281.5q0 -117 -65 -209t-161 -123q104 -33 143 -115t50 -235q2 -29 6 -84.5t5 -71.5t5 -53t7 -49.5t8.5 -36t12.5 -40t17 -34.5h-178q-8 20 -14 40.5t-10.5 53.5t-5.5 52.5t-5 79t-6 91.5 q-12 170 -39 224q-55 111 -239 110h-369v-653h-158zM336 791h395q125 0 207 68.5t82 182.5q0 123 -76 187.5t-213 64.5h-393z" glyph-name="Racute" horiz-adv-x="1269" unicode="Ŕ"/><glyph d="M334 1102h-160l211 254h199zM158 0v1024h151v-139q25 59 102.5 110.5t219.5 44.5l18 -2v-153l-14 -2q-326 12 -326 -312v-571h-151z" glyph-name="racute" horiz-adv-x="686" unicode="ŕ"/><glyph d="M178 -2v1436l576 2q197 2 308.5 -103.5t111.5 -281.5q0 -117 -65 -209t-161 -123q104 -33 143 -115t50 -235q2 -29 6 -84.5t5 -71.5t5 -53t7 -49.5t8.5 -36t12.5 -40t17 -34.5h-178q-8 20 -14 40.5t-10.5 53.5t-5.5 52.5t-5 79t-6 91.5q-12 170 -39 224q-55 111 -239 110 h-369v-653h-158zM336 791h395q125 0 207 68.5t82 182.5q0 123 -76 187.5t-213 64.5h-393zM592 -526v96q100 4 94 113h-102v208h196v-208q0 -102 -51 -155.5t-137 -53.5z" glyph-name="Rcommaaccent" horiz-adv-x="1269" unicode="Ŗ"/><glyph d="M158 0v1024h151v-139q25 59 102.5 110.5t219.5 44.5l18 -2v-153l-14 -2q-326 12 -326 -312v-571h-151zM154 -547v96q100 4 94 113h-103v209h197v-209q0 -102 -51 -155.5t-137 -53.5z" glyph-name="rcommaaccent" horiz-adv-x="686" unicode="ŗ"/><glyph d="M340 1821h172l143 -170l146 170h170l-211 -262h-211zM178 -2v1436l576 2q197 2 308.5 -103.5t111.5 -281.5q0 -117 -65 -209t-161 -123q104 -33 143 -115t50 -235q2 -29 6 -84.5t5 -71.5t5 -53t7 -49.5t8.5 -36t12.5 -40t17 -34.5h-178q-8 20 -14 40.5t-10.5 53.5 t-5.5 52.5t-5 79t-6 91.5q-12 170 -39 224q-55 111 -239 110h-369v-653h-158zM336 791h395q125 0 207 68.5t82 182.5q0 123 -76 187.5t-213 64.5h-393z" glyph-name="Rcaron" horiz-adv-x="1269" unicode="Ř"/><glyph d="M150 1415h172l143 -170l145 170h170l-211 -262h-211zM158 0v1024h151v-139q25 59 102.5 110.5t219.5 44.5l18 -2v-153l-14 -2q-326 12 -326 -312v-571h-151z" glyph-name="rcaron" horiz-adv-x="815" unicode="ř"/><glyph d="M680 1542h-160l211 254h199zM672 -14q-229 0 -394 118.5t-182 337.5h180q23 -145 129.5 -226t278.5 -81q154 0 243 74t89 190q0 106 -77 165t-259 87q-289 43 -417 143.5t-128 260.5q0 164 138.5 277.5t342.5 113.5q250 0 395.5 -122t147.5 -333h-168q-10 145 -107.5 223 t-260.5 78q-137 0 -225.5 -68.5t-88.5 -166.5q0 -193 361 -246q289 -43 404.5 -141.5t115.5 -272.5q0 -186 -143.5 -298.5t-374.5 -112.5z" glyph-name="Sacute" horiz-adv-x="1286" unicode="Ś"/><glyph d="M489 1149h-159l211 254h198zM504 -23q-174 0 -297 91.5t-131 259.5h155q12 -104 89 -159.5t190 -55.5q111 0 166 52t55 128q0 68 -53 105.5t-178 58.5q-213 35 -303.5 110.5t-90.5 190.5q0 119 102.5 201.5t256.5 82.5q170 0 284.5 -88t116.5 -260h-147q-14 211 -248 211 q-88 0 -148.5 -41t-60.5 -106q0 -127 236 -164q213 -31 302 -101.5t89 -203.5q0 -135 -107.5 -223.5t-277.5 -88.5z" glyph-name="sacute" horiz-adv-x="964" unicode="ś"/><glyph d="M557 1790h211l211 -262h-174l-141 170l-142 -170h-174zM672 -14q-229 0 -394 118.5t-182 337.5h180q23 -145 129.5 -226t278.5 -81q154 0 243 74t89 190q0 106 -77 165t-259 87q-289 43 -417 143.5t-128 260.5q0 164 138.5 277.5t342.5 113.5q250 0 395.5 -122 t147.5 -333h-168q-10 145 -107.5 223t-260.5 78q-137 0 -225.5 -68.5t-88.5 -166.5q0 -193 361 -246q289 -43 404.5 -141.5t115.5 -272.5q0 -186 -143.5 -298.5t-374.5 -112.5z" glyph-name="Scircumflex" horiz-adv-x="1286" unicode="Ŝ"/><glyph d="M393 1405h211l211 -262h-174l-141 170l-142 -170h-174zM504 -23q-174 0 -297 91.5t-131 259.5h155q12 -104 89 -159.5t190 -55.5q111 0 166 52t55 128q0 68 -53 105.5t-178 58.5q-213 35 -303.5 110.5t-90.5 190.5q0 119 102.5 201.5t256.5 82.5q170 0 284.5 -88 t116.5 -260h-147q-14 211 -248 211q-88 0 -148.5 -41t-60.5 -106q0 -127 236 -164q213 -31 302 -101.5t89 -203.5q0 -135 -107.5 -223.5t-277.5 -88.5z" glyph-name="scircumflex" horiz-adv-x="964" unicode="ŝ"/><glyph d="M1190 397q0 -182 -135 -293.5t-359 -117.5l-39 -78q37 6 68 4q80 -4 133 -56.5t53 -131.5q0 -88 -62.5 -150.5t-150.5 -62.5q-70 0 -138 38.5t-97 94.5l90 37q23 -31 64.5 -51.5t80.5 -20.5q47 0 80 32.5t33 82.5q0 43 -27.5 70.5t-72.5 31.5q-47 6 -99 -16l-82 53 l66 127q-205 20 -345 136t-155 316h180q23 -145 129.5 -226t278.5 -81q154 0 243 74t89 190q0 106 -77 165t-259 87q-289 43 -417 143.5t-128 260.5q0 164 138.5 277.5t342.5 113.5q250 0 395.5 -122t147.5 -333h-168q-10 145 -107.5 223t-260.5 78q-137 0 -225.5 -68.5 t-88.5 -166.5q0 -193 361 -246q289 -43 404.5 -141.5t115.5 -272.5z" glyph-name="Scedilla" horiz-adv-x="1286" unicode="Ş"/><glyph d="M889 289q0 -123 -91 -209t-241 -100l-57 -115q37 6 67 4q80 -4 133.5 -56.5t53.5 -131.5q0 -90 -61.5 -151.5t-151.5 -61.5q-70 0 -138.5 38.5t-97.5 94.5l90 37q23 -31 65 -51.5t81 -20.5q47 0 79.5 32.5t32.5 82.5q0 45 -27.5 71.5t-72.5 30.5q-47 6 -98 -16l-82 53 l84 160q-160 12 -266.5 102t-114.5 246h155q12 -104 89 -159.5t190 -55.5q111 0 166 52t55 128q0 68 -53 105.5t-178 58.5q-213 35 -303.5 110.5t-90.5 190.5q0 119 102.5 201.5t256.5 82.5q170 0 284.5 -88t116.5 -260h-147q-14 211 -248 211q-88 0 -148.5 -41t-60.5 -106 q0 -127 236 -164q213 -31 302 -101.5t89 -203.5z" glyph-name="scedilla" horiz-adv-x="964" unicode="ş"/><glyph d="M373 1808h172l143 -170l146 170h170l-211 -262h-211zM672 -14q-229 0 -394 118.5t-182 337.5h180q23 -145 129.5 -226t278.5 -81q154 0 243 74t89 190q0 106 -77 165t-259 87q-289 43 -417 143.5t-128 260.5q0 164 138.5 277.5t342.5 113.5q250 0 395.5 -122t147.5 -333 h-168q-10 145 -107.5 223t-260.5 78q-137 0 -225.5 -68.5t-88.5 -166.5q0 -193 361 -246q289 -43 404.5 -141.5t115.5 -272.5q0 -186 -143.5 -298.5t-374.5 -112.5z" glyph-name="Scaron" horiz-adv-x="1286" unicode="Š"/><glyph d="M176 1423h172l144 -170l145 170h170l-211 -262h-211zM504 -23q-174 0 -297 91.5t-131 259.5h155q12 -104 89 -159.5t190 -55.5q111 0 166 52t55 128q0 68 -53 105.5t-178 58.5q-213 35 -303.5 110.5t-90.5 190.5q0 119 102.5 201.5t256.5 82.5q170 0 284.5 -88 t116.5 -260h-147q-14 211 -248 211q-88 0 -148.5 -41t-60.5 -106q0 -127 236 -164q213 -31 302 -101.5t89 -203.5q0 -135 -107.5 -223.5t-277.5 -88.5z" glyph-name="scaron" horiz-adv-x="964" unicode="š"/><glyph d="M1208 1284h-512v-1253h29q82 -4 134 -57.5t52 -133.5q0 -90 -60 -150.5t-151 -60.5q-72 0 -140 38t-97 95l92 37q23 -31 65 -52t80 -21q47 0 79 33.5t32 80.5q0 45 -26.5 73t-73.5 32q-41 6 -99 -17l-80 52l11 20h-4v1284h-514v150h1183v-150z" glyph-name="Tcommaaccent" horiz-adv-x="1232" unicode="Ţ"/><glyph d="M457 -68q80 -4 133 -56t53 -132q0 -88 -61.5 -150.5t-151.5 -62.5q-70 0 -138.5 39t-96.5 94l90 37q23 -31 64.5 -51.5t80.5 -20.5q47 0 80 33t33 82q0 43 -28 70.5t-73 31.5q-47 6 -98 -16l-82 53l68 129q-80 23 -125 89.5t-45 162.5v623h-156v137h156v301h153v-301h248 v-137h-248v-600q0 -143 127 -144h123v-143h-137l-37 -72q37 6 68 4z" glyph-name="tcommaaccent" horiz-adv-x="688" unicode="ţ"/><glyph d="M315 1800h172l144 -170l145 170h170l-211 -262h-211zM539 0v1284h-514v150h1183v-150h-512v-1284h-157z" glyph-name="Tcaron" horiz-adv-x="1232" unicode="Ť"/><glyph d="M-57 1661h172l143 -170l145 170h170l-211 -262h-210zM418 0q-117 0 -187.5 71.5t-70.5 192.5v623h-156v137h156v301h153v-301h248v-137h-248v-600q0 -143 127 -144h123v-143h-145z" glyph-name="tcaron" horiz-adv-x="630" unicode="ť"/><glyph d="M1208 1284h-512v-508h256v-127h-256v-649h-157v649h-222v127h222v508h-514v150h1183v-150z" glyph-name="Tbar" horiz-adv-x="1232" unicode="Ŧ"/><glyph d="M596 639h-266v-352q0 -143 127 -144h123v-143h-146q-117 0 -187.5 71.5t-70.5 192.5v375h-135v127h135v121h-156v137h156v301h154v-301h248v-137h-248v-121h266v-127z" glyph-name="tbar" horiz-adv-x="641" unicode="ŧ"/><glyph d="M868 1552q-119 0 -192 113q-37 57 -86 57q-37 0 -59.5 -27.5t-22.5 -72.5q0 -33 6 -51h-123q-6 25 -6 47q-2 98 54.5 161.5t144.5 63.5q119 0 194 -112q33 -57 86 -58q41 0 62.5 33t17.5 86q0 10 -4 31h123q2 -10 2 -33q10 -102 -46.5 -170t-150.5 -68zM711 -16 q-252 0 -402.5 148.5t-150.5 402.5v899h159v-899q0 -188 106.5 -294t287.5 -106q178 0 285.5 105.5t107.5 294.5v899h158v-899q0 -254 -150.5 -402.5t-400.5 -148.5z" glyph-name="Utilde" horiz-adv-x="1419" unicode="Ũ"/><glyph d="M731 1167q-119 0 -192 113q-37 57 -86 57q-37 0 -59.5 -27.5t-22.5 -72.5q0 -33 6 -51h-123q-6 25 -6 47q-2 98 54 161.5t144 63.5q119 0 195 -112q33 -57 86 -58q41 0 62.5 33t17.5 86q0 10 -4 31h123q2 -10 2 -33q10 -102 -46.5 -170t-150.5 -68zM528 -27 q-160 0 -270.5 110t-110.5 312v629h162v-618q2 -131 69.5 -213t174.5 -82q133 0 213 98t82 264v551h153v-1024h-153v139q-41 -66 -126 -116t-194 -50z" glyph-name="utilde" unicode="ũ"/><glyph d="M410 1585v127h634v-127h-634zM711 -16q-252 0 -402.5 148.5t-150.5 402.5v899h159v-899q0 -188 106.5 -294t287.5 -106q178 0 285.5 105.5t107.5 294.5v899h158v-899q0 -254 -150.5 -402.5t-400.5 -148.5z" glyph-name="Umacron" horiz-adv-x="1419" unicode="Ū"/><glyph d="M272 1186v127h635v-127h-635zM528 -27q-160 0 -270.5 110t-110.5 312v629h162v-618q2 -131 69.5 -213t174.5 -82q133 0 213 98t82 264v551h153v-1024h-153v139q-41 -66 -126 -116t-194 -50z" glyph-name="umacron" unicode="ū"/><glyph d="M727 1536q-156 0 -249 94t-95 238h125q2 -92 58.5 -155.5t160.5 -63.5q104 2 162.5 65.5t60.5 153.5h123q-2 -143 -96 -237.5t-250 -94.5zM711 -16q-252 0 -402.5 148.5t-150.5 402.5v899h159v-899q0 -188 106.5 -294t287.5 -106q178 0 285.5 105.5t107.5 294.5v899h158 v-899q0 -254 -150.5 -402.5t-400.5 -148.5z" glyph-name="Ubreve" horiz-adv-x="1419" unicode="Ŭ"/><glyph d="M592 1133q-156 0 -249 94t-95 237h125q2 -92 58 -155.5t161 -63.5q104 2 162.5 65.5t60.5 153.5h123q-2 -143 -96 -237t-250 -94zM528 -27q-160 0 -270.5 110t-110.5 312v629h162v-618q2 -131 69.5 -213t174.5 -82q133 0 213 98t82 264v551h153v-1024h-153v139 q-41 -66 -126 -116t-194 -50z" glyph-name="ubreve" unicode="ŭ"/><glyph d="M737 1487q-80 0 -137 57.5t-57 134.5q0 80 57 137.5t137 57.5t135.5 -57.5t57.5 -137.5q0 -78 -56.5 -135t-136.5 -57zM737 1581q43 0 71 27.5t28 70.5t-28 73t-71 30t-71.5 -30t-28.5 -73t28.5 -70.5t71.5 -27.5zM711 -16q-252 0 -402.5 148.5t-150.5 402.5v899h159 v-899q0 -188 106.5 -294t287.5 -106q178 0 285.5 105.5t107.5 294.5v899h158v-899q0 -254 -150.5 -402.5t-400.5 -148.5z" glyph-name="Uring" horiz-adv-x="1419" unicode="Ů"/><glyph d="M604 1118q-80 0 -137 57.5t-57 135.5q0 80 57 137t137 57t135.5 -57t57.5 -137q0 -78 -56.5 -135.5t-136.5 -57.5zM604 1212q43 0 70.5 28t27.5 71t-27.5 72.5t-70.5 29.5t-71.5 -29.5t-28.5 -72.5t28.5 -71t71.5 -28zM528 -27q-160 0 -270.5 110t-110.5 312v629h162 v-618q2 -131 69.5 -213t174.5 -82q133 0 213 98t82 264v551h153v-1024h-153v139q-41 -66 -126 -116t-194 -50z" glyph-name="uring" unicode="ů"/><glyph d="M453 1561v208h198v-208h-198zM801 1561v208h196v-208h-196zM711 -16q-252 0 -402.5 148.5t-150.5 402.5v899h159v-899q0 -188 106.5 -294t287.5 -106q178 0 285.5 105.5t107.5 294.5v899h158v-899q0 -254 -150.5 -402.5t-400.5 -148.5z" glyph-name="Uhungarumlaut" horiz-adv-x="1419" unicode="Ű"/><glyph d="M328 1176v208h198v-208h-198zM676 1176v208h196v-208h-196zM528 -27q-160 0 -270.5 110t-110.5 312v629h162v-618q2 -131 69.5 -213t174.5 -82q133 0 213 98t82 264v551h153v-1024h-153v139q-41 -66 -126 -116t-194 -50z" glyph-name="uhungarumlaut" unicode="ű"/><glyph d="M1104 1434h158v-899q0 -231 -125 -376t-340 -171q-98 -33 -166 -115t-68 -168q0 -59 35 -95t98 -36q117 0 193 96l65 -92q-115 -115 -286 -110q-109 4 -175.5 61t-66.5 160q0 176 217 297q-223 23 -354 168t-131 381v899h159v-899q0 -188 106.5 -294t287.5 -106 q178 0 285.5 105.5t107.5 294.5v899z" glyph-name="Uogonek" horiz-adv-x="1419" unicode="Ų"/><glyph d="M1065 -330l65 -92q-115 -115 -286 -110q-109 4 -175.5 61t-66.5 160q0 188 246 313v137q-41 -66 -126 -116t-194 -50q-160 0 -270.5 110t-110.5 312v629h162v-618q2 -131 69.5 -213t174.5 -82q133 0 213 98t82 264v551h153v-1020l15 -4q-111 -23 -194 -111t-83 -184 q0 -59 35 -95t98 -36q117 0 193 96z" glyph-name="uogonek" horiz-adv-x="1288" unicode="ų"/><glyph d="M868 1776h211l211 -263h-174l-141 170l-141 -170h-175zM461 0l-406 1434h160l336 -1213l330 1213h153l338 -1215l322 1215h161l-397 -1434h-178l-324 1174l-319 -1174h-176z" glyph-name="Wcircumflex" horiz-adv-x="1910" unicode="Ŵ"/><glyph d="M672 1384h211l211 -262h-174l-142 170l-141 -170h-174zM356 0l-321 1024h174l237 -838l236 838h149l238 -838l236 838h176l-322 -1024h-182l-219 778l-219 -778h-183z" glyph-name="wcircumflex" horiz-adv-x="1515" unicode="ŵ"/><glyph d="M559 1729h211l211 -263h-174l-141 170l-142 -170h-174zM567 0v590l-522 844h174l428 -703l436 703h166l-522 -844v-590h-160z" glyph-name="Ycircumflex" horiz-adv-x="1294" unicode="Ŷ"/><glyph d="M430 1421h211l211 -262h-174l-141 170l-142 -170h-174zM84 -410v146h74q145 0 200 145l68 180l-401 963h174l307 -770l299 770h172l-463 -1176q-51 -127 -131 -191.5t-215 -66.5h-84z" glyph-name="ycircumflex" horiz-adv-x="1001" unicode="ŷ"/><glyph d="M387 1501v209h199v-209h-199zM735 1501v209h197v-209h-197zM567 0v590l-522 844h174l428 -703l436 703h166l-522 -844v-590h-160z" glyph-name="Ydieresis" horiz-adv-x="1294" unicode="Ÿ"/><glyph d="M698 1532h-159l211 254h198zM106 0v154l945 1126h-932v154h1128v-154l-942 -1126h930v-154h-1129z" glyph-name="Zacute" horiz-adv-x="1333" unicode="Ź"/><glyph d="M528 1163h-159l211 254h198zM86 0v143l629 740h-629v143l817 -2v-141l-627 -740h623v-143h-813z" glyph-name="zacute" horiz-adv-x="1009" unicode="ź"/><glyph d="M604 1552v209h199v-209h-199zM106 0v154l945 1126h-932v154h1128v-154l-942 -1126h930v-154h-1129z" glyph-name="Zdotaccent" horiz-adv-x="1333" unicode="Ż"/><glyph d="M422 1204v209h199v-209h-199zM86 0v143l629 740h-629v143l817 -2v-141l-627 -740h623v-143h-813z" glyph-name="zdotaccent" horiz-adv-x="1177" unicode="ż"/><glyph d="M395 1790h172l144 -170l145 170h170l-211 -262h-211zM106 0v154l945 1126h-932v154h1128v-154l-942 -1126h930v-154h-1129z" glyph-name="Zcaron" horiz-adv-x="1333" unicode="Ž"/><glyph d="M215 1415h172l143 -170l146 170h170l-211 -262h-211zM86 0v143l629 740h-629v143l817 -2v-141l-627 -740h623v-143h-813z" glyph-name="zcaron" horiz-adv-x="1013" unicode="ž"/><glyph d="M537 1456q213 0 344 -143.5t131 -382.5q0 -238 -129 -385.5t-344 -147.5q-217 0 -338 158t-115 408h764v2q0 162 -86 256t-232 94q-94 0 -175 -55.5t-107 -153.5h-148q23 154 142 252t293 98zM844 825h-592q14 -135 86 -211.5t205 -76.5q131 0 209 78.5t92 209.5z" glyph-name="uni018F" horiz-adv-x="1097" unicode="Ə"/><glyph d="M672 -14q-229 0 -394 118.5t-182 337.5h180q23 -145 129.5 -226t278.5 -81q154 0 243 74t89 190q0 106 -77 165t-259 87q-289 43 -417 143.5t-128 260.5q0 164 138.5 277.5t342.5 113.5q250 0 395.5 -122t147.5 -333h-168q-10 145 -107.5 223t-260.5 78 q-137 0 -225.5 -68.5t-88.5 -166.5q0 -193 361 -246q289 -43 404.5 -141.5t115.5 -272.5q0 -186 -143.5 -298.5t-374.5 -112.5zM600 -547v96q100 4 94 113h-102v209h196v-209q0 -102 -51 -155.5t-137 -53.5z" glyph-name="Scommaaccent" horiz-adv-x="1286" unicode="Ș"/><glyph d="M504 -23q-174 0 -297 91.5t-131 259.5h155q12 -104 89 -159.5t190 -55.5q111 0 166 52t55 128q0 68 -53 105.5t-178 58.5q-213 35 -303.5 110.5t-90.5 190.5q0 119 102.5 201.5t256.5 82.5q170 0 284.5 -88t116.5 -260h-147q-14 211 -248 211q-88 0 -148.5 -41 t-60.5 -106q0 -127 236 -164q213 -31 302 -101.5t89 -203.5q0 -135 -107.5 -223.5t-277.5 -88.5zM422 -573v96q100 4 94 112h-102v209h196v-209q0 -102 -51 -155t-137 -53z" glyph-name="scommaaccent" horiz-adv-x="964" unicode="ș"/><glyph d="M539 0v1284h-514v150h1183v-150h-512v-1284h-157zM545 -547v96q100 4 94 113h-102v209h196v-209q0 -102 -51 -155.5t-137 -53.5z" glyph-name="uni021A" horiz-adv-x="1232" unicode="Ț"/><glyph d="M418 0q-117 0 -187.5 71.5t-70.5 192.5v623h-156v137h156v301h153v-301h248v-137h-248v-600q0 -143 127 -144h123v-143h-145zM307 -547v96q100 4 94 113h-102v209h197v-209q0 -102 -51.5 -155.5t-137.5 -53.5z" glyph-name="uni021B" horiz-adv-x="608" unicode="ț"/><glyph d="M317 1548v127h635v-127h-635zM567 0v590l-522 844h174l428 -703l436 703h166l-522 -844v-590h-160z" glyph-name="uni0232" horiz-adv-x="1294" unicode="Ȳ"/><glyph d="M195 1192v127h634v-127h-634zM84 -410v146h74q145 0 200 145l68 180l-401 963h174l307 -770l299 770h172l-463 -1176q-51 -127 -131 -191.5t-215 -66.5h-84z" glyph-name="uni0233" horiz-adv-x="1001" unicode="ȳ"/><glyph d="M-16 -362v149h43q61 0 98 39t37 115v1083h155v-1100q0 -135 -75.5 -210.5t-200.5 -75.5h-57z" glyph-name="uni0237" horiz-adv-x="454" unicode="ȷ"/><glyph d="M895 1526l-250 254h197l213 -254h-160zM461 0l-406 1434h160l336 -1213l330 1213h153l338 -1215l322 1215h161l-397 -1434h-178l-324 1174l-319 -1174h-176z" glyph-name="Wgrave" horiz-adv-x="1910" unicode="Ẁ"/><glyph d="M721 1178l-250 254h197l213 -254h-160zM356 0l-321 1024h174l237 -838l236 838h149l238 -838l236 838h176l-322 -1024h-182l-219 778l-219 -778h-183z" glyph-name="wgrave" horiz-adv-x="1515" unicode="ẁ"/><glyph d="M1055 1530h-160l211 254h199zM461 0l-406 1434h160l336 -1213l330 1213h153l338 -1215l322 1215h161l-397 -1434h-178l-324 1174l-319 -1174h-176z" glyph-name="Wacute" horiz-adv-x="1910" unicode="Ẃ"/><glyph d="M856 1122h-160l211 254h199zM356 0l-321 1024h174l237 -838l236 838h149l238 -838l236 838h176l-322 -1024h-182l-219 778l-219 -778h-183z" glyph-name="wacute" horiz-adv-x="1515" unicode="ẃ"/><glyph d="M692 1573v209h199v-209h-199zM1040 1573v209h197v-209h-197zM461 0l-406 1434h160l336 -1213l330 1213h153l338 -1215l322 1215h161l-397 -1434h-178l-324 1174l-319 -1174h-176z" glyph-name="Wdieresis" horiz-adv-x="1910" unicode="Ẅ"/><glyph d="M512 1188v209h199v-209h-199zM860 1188v209h197v-209h-197zM356 0l-321 1024h174l237 -838l236 838h149l238 -838l236 838h176l-322 -1024h-182l-219 778l-219 -778h-183z" glyph-name="wdieresis" horiz-adv-x="1515" unicode="ẅ"/><glyph d="M188 0v1434h162v-1434h-162zM188 -291v209h199v-209h-199z" glyph-name="uni1ECA" horiz-adv-x="542" unicode="Ị"/><glyph d="M147 0v1024h160v-1024h-160zM143 -389v209h199v-209h-199z" glyph-name="uni1ECB" horiz-adv-x="489" unicode="ị"/><glyph d="M774 -20q-285 0 -476.5 211.5t-191.5 525.5q0 315 189.5 524t478.5 209t478.5 -210t189.5 -527q0 -311 -191.5 -522t-476.5 -211zM770 135q223 0 366.5 164t143.5 406q0 254 -141.5 422.5t-364.5 168.5q-221 0 -361.5 -167.5t-140.5 -419.5q0 -244 140.5 -409t357.5 -165 zM711 -313v209h198v-209h-198z" glyph-name="uni1ECC" horiz-adv-x="1548" unicode="Ọ"/><glyph d="M569 -10q-209 0 -346 147.5t-137 374.5q0 231 137 378.5t346 147.5q215 0 348.5 -146.5t133.5 -379.5q0 -227 -136.5 -374.5t-345.5 -147.5zM565 135q152 0 243 104.5t91 268.5q0 172 -87 278.5t-243 106.5q-145 0 -236 -106.5t-91 -274.5q0 -166 89 -271.5t234 -105.5z M483 -340v209h199v-209h-199z" glyph-name="uni1ECD" horiz-adv-x="1136" unicode="ọ"/><glyph d="M711 -16q-252 0 -402.5 148.5t-150.5 402.5v899h159v-899q0 -188 106.5 -294t287.5 -106q178 0 285.5 105.5t107.5 294.5v899h158v-899q0 -254 -150.5 -402.5t-400.5 -148.5zM623 -319v208h198v-208h-198z" glyph-name="uni1EE4" horiz-adv-x="1419" unicode="Ụ"/><glyph d="M528 -27q-160 0 -270.5 110t-110.5 312v629h162v-618q2 -131 69.5 -213t174.5 -82q133 0 213 98t82 264v551h153v-1024h-153v139q-41 -66 -126 -116t-194 -50zM502 -340v209h198v-209h-198z" glyph-name="uni1EE5" unicode="ụ"/><glyph d="M635 1458l-250 254h197l213 -254h-160zM567 0v590l-522 844h174l428 -703l436 703h166l-522 -844v-590h-160z" glyph-name="Ygrave" horiz-adv-x="1294" unicode="Ỳ"/><glyph d="M516 1126l-250 254h197l213 -254h-160zM84 -410v146h74q145 0 200 145l68 180l-401 963h174l307 -770l299 770h172l-463 -1176q-51 -127 -131 -191.5t-215 -66.5h-84z" glyph-name="ygrave" horiz-adv-x="1001" unicode="ỳ"/><glyph d="M193 467v111h1024v-111h-1024z" glyph-name="endash" horiz-adv-x="1406" unicode="–"/><glyph d="M20 467v111h2048v-111h-2048z" glyph-name="emdash" horiz-adv-x="2086" unicode="—"/><glyph d="M78 1208l2 209q0 100 51 154.5t135 54.5v-96q-98 -4 -92 -113h102v-209h-198z" glyph-name="quoteleft" horiz-adv-x="329" unicode="‘"/><glyph d="M72 1202v96q47 2 71.5 32t20.5 81h-101v209h197l-2 -209q2 -100 -50 -154.5t-136 -54.5z" glyph-name="quoteright" horiz-adv-x="237" unicode="’"/><glyph d="M102 -209v96q47 2 72 32t21 81h-101v209h197l-2 -209q2 -100 -50.5 -154.5t-136.5 -54.5z" glyph-name="quotesinglbase" horiz-adv-x="489" unicode="‚"/><glyph d="M27 1208v209q0 102 51 155.5t137 53.5v-96q-100 -4 -94 -113h102v-209h-196zM305 1208l2 209q0 100 51.5 154.5t135.5 54.5v-96q-98 -4 -93 -113h103v-209h-199z" glyph-name="quotedblleft" horiz-adv-x="520" unicode="“"/><glyph d="M23 1202v98q100 4 94 111h-103v211h197v-211q0 -100 -51 -154.5t-137 -54.5zM315 1202v98q100 4 95 111h-103v211h197v-211q0 -100 -51.5 -154.5t-137.5 -54.5z" glyph-name="quotedblright" horiz-adv-x="534" unicode="”"/><glyph d="M104 -209v96q100 4 95 113h-103v209h197v-209q0 -102 -51.5 -155.5t-137.5 -53.5zM399 -209v96q47 2 72 32t21 81h-101v209h197l-2 -209q2 -100 -50.5 -154.5t-136.5 -54.5z" glyph-name="quotedblbase" horiz-adv-x="794" unicode="„"/><glyph d="M432 530v353h328v-353h-328z" glyph-name="bullet" horiz-adv-x="1228" unicode="•"/><glyph d="M145 0v209h197v-209h-197zM641 0v209h197v-209h-197zM1130 0v209h197v-209h-197z" glyph-name="ellipsis" horiz-adv-x="1472" unicode="…"/><glyph d="M399.5 954q-110.5 0 -188.5 86t-78 207t78 207t188.5 86t188.5 -86t78 -207t-78 -207t-188.5 -86zM125 0l1057 1536h161l-1056 -1536h-162zM399.5 1081q55.5 0 96.5 49.5t41 117t-41 115.5t-96.5 48t-95.5 -47t-40 -116.5t40 -118t95.5 -48.5zM1087.5 -12 q-110.5 0 -188.5 86t-78 209q0 121 78 206.5t188.5 85.5t188.5 -86t78 -206q0 -123 -78 -209t-188.5 -86zM1714.5 -10q-110.5 0 -188.5 86t-78 206.5t78 206.5t188.5 86t188 -86t77.5 -206.5t-77.5 -206.5t-188 -86zM1714.5 117q57.5 0 97 48t39.5 117.5t-39.5 116.5t-97 47 t-96.5 -47t-39 -116.5t39 -117.5t96.5 -48zM1087 115q55 0 95.5 48t40.5 117.5t-40 116.5t-96 47q-57 0 -97 -47t-40 -116.5t40 -117.5t97 -48z" glyph-name="perthousand" horiz-adv-x="2101" unicode="‰"/><glyph d="M424 195l-311 376l311 377h151l-311 -377l311 -376h-151z" glyph-name="guilsinglleft" horiz-adv-x="694" unicode="‹"/><glyph d="M135 195l311 376l-311 377h152l311 -377l-311 -376h-152z" glyph-name="guilsinglright" horiz-adv-x="694" unicode="›"/><glyph d="M735 111q158 -2 250 87t113 261h151q-23 -225 -157 -356.5t-351 -131.5q-229 0 -374.5 146.5t-171.5 410.5h-138v127h133v150h-133v119h138q27 262 172 409.5t372 147.5q215 2 346.5 -125t151.5 -342h-152q-14 162 -106 247t-246 82q-168 0 -265 -111.5t-112 -307.5h432 v-119h-438v-150h436l2 -127h-432q14 -199 110.5 -308t268.5 -109z" glyph-name="Euro" horiz-adv-x="1318" unicode="€"/><glyph d="M455 952v416h-183v66h430v-66l-180 2v-418h-67zM770 954v480h82l172 -396l168 396h78v-480h-66v346l-145 -346h-72l-151 351l2 -351h-68z" glyph-name="trademark" horiz-adv-x="1581" unicode="™"/><glyph d="M938 -18q-362 0 -618.5 230t-256.5 554q0 328 256 559t619 231q365 0 621 -231t256 -559v-21h-1418q-12 0 -12 -8v-430q0 -23 18 -49q227 -233 537 -233q166 0 313.5 69.5t251.5 192.5h125q-119 -141 -301 -223t-391 -82zM397 788h1088q8 0 8 15v430q0 33 -20 51 q-229 225 -532.5 225t-534.5 -231q-20 -25 -21 -53v-422q0 -15 12 -15z" glyph-name="estimated" horiz-adv-x="1880" unicode="℮"/><glyph d="M131 524v129h1229v-129h-1229z" glyph-name="minus" horiz-adv-x="1488" unicode="−"/><glyph d="M1360 672h-426l-219 -256h645v-127h-752l-243 -285h-132l244 285h-346v127h453l219 256h-672v127h780l195 229h133l-197 -229h318v-127z" glyph-name="notequal" horiz-adv-x="1488" unicode="≠"/><glyph d="M1360 178l-1131 555v125l1131 553v-141l-987 -475l987 -476v-141zM684 25h221v-2h-221v2z" glyph-name="lessequal" horiz-adv-x="1636" unicode="≤"/><glyph d="M229 178v141l988 476l-988 475v141l1131 -553v-125zM227 25l457 53l680 -53l-459 -54z" glyph-name="greaterequal" horiz-adv-x="1587" unicode="≥"/><glyph d="M1157 590v-125h-115v-465h-149v164q-41 -78 -135 -132.5t-209 -54.5q-184 0 -316.5 134.5t-144.5 353.5h-96v125h98q25 203 152 323.5t301 120.5q117 0 210 -52t140 -132v584h149v-844h115zM567 889q-125 0 -208 -82t-101 -217h631q-23 135 -110 217t-212 82zM567 125 q139 0 229.5 94t100.5 246h-643q12 -154 97 -247t216 -93z" glyph-name="glyph336" horiz-adv-x="1126"/><glyph d="M334 1102h-160l211 254h199zM158 0v1024h151v-139q25 59 102.5 110.5t219.5 44.5l18 -2v-153l-14 -2q-326 12 -326 -312v-571h-151z" glyph-name="glyph337" horiz-adv-x="686"/><glyph d="M156 -2v1436l573 2q188 -2 304 -121t116 -305q0 -156 -86 -264.5t-232 -141.5l363 -604h-178l-350 592h-355v-594h-155zM311 733h396q129 0 208.5 75t79.5 202q0 131 -79.5 207.5t-208.5 76.5h-394z" glyph-name="glyph338" horiz-adv-x="1267"/><glyph d="M547 -23q-201 0 -330 149.5t-129 379.5q0 231 127 379.5t326 148.5q111 0 202 -48t144 -130v168h153v-1024h-153v162q-49 -84 -140 -134.5t-200 -50.5zM561 119q147 0 238.5 104.5t91.5 272.5q0 174 -91 285.5t-239 111.5q-141 0 -227 -107.5t-86 -279.5t86 -279.5 t227 -107.5z" glyph-name="glyph339" horiz-adv-x="1136"/><glyph d="M299 0q-125 0 -200.5 76t-75.5 211l4 1147h155l-4 -1131q-2 -76 36 -114.5t99 -38.5h43v-150h-57z" glyph-name="glyph340" horiz-adv-x="456"/></font>
</defs>
</svg>
